<svg width="350" height="299" viewBox="0 0 350 299" fill="none" xmlns="http://www.w3.org/2000/svg">
<path d="M220.021 144.731C246.639 118.118 246.639 74.9689 220.021 48.3556C193.403 21.7423 150.247 21.7423 123.629 48.3556C97.0108 74.969 97.0108 118.118 123.629 144.731C150.247 171.344 193.403 171.344 220.021 144.731Z" fill="#FBB667"/>
<path opacity="0.8" d="M91.1821 102.393C89.1518 98.7113 85.2402 96.2225 80.7436 96.2225C79.0345 96.2225 77.4056 96.5895 75.9373 97.2318C75.2605 93.0112 71.6013 89.7884 67.185 89.7884C65.8659 89.7884 64.627 90.0752 63.5028 90.5913C62.2181 87.2997 59.0292 84.96 55.2782 84.96C50.5293 84.96 46.6521 88.7104 46.4686 93.4126C44.8397 94.1008 43.4058 95.1444 42.2358 96.4404C41.3755 94.3645 39.3222 92.908 36.9363 92.908C34.4471 92.908 32.3364 94.4907 31.5335 96.7042C30.2143 96.0046 28.7116 95.6032 27.1057 95.6032C22.8041 95.6032 19.1908 98.4589 18.0208 102.381H91.1821V102.393Z" fill="#F1F2F2"/>
<path d="M281.553 224.055C264.381 216.279 245.191 213.917 226.344 214.261C187.756 214.972 149.913 226.613 111.325 226.406C97.2618 226.326 83.0035 224.686 69.2384 227.633C51.7568 231.372 29.5262 247.532 20.5674 263.003H320.543C313.729 245.433 298.714 231.819 281.553 224.055Z" fill="#FFEDC5"/>
<path d="M148.927 125.847C148.927 125.847 149.42 115.364 135.643 110.295C135.643 110.295 136.618 110.054 139.314 110.616C139.314 110.616 115.133 96.5207 100.164 122.108C100.164 122.108 104.901 98.998 135.104 98.6424C135.104 98.6424 129.782 89.4673 112.908 93.08C112.908 93.08 113.883 91.6693 116.67 91.05C116.67 91.05 97.6747 91.784 97.6861 120.055C96.4702 91.3482 70.2707 95.3394 70.2707 95.3394C72.6452 95.844 73.7464 97.702 73.7464 97.702C56.54 95.8899 52.0778 108.38 52.0778 108.38C83.3934 97.3923 95.5755 121.741 95.5755 121.741C80.2963 103.207 62.8261 112.336 62.8261 112.336C65.3038 111.683 66.5426 112.749 66.5426 112.749C49.3937 117.796 46.698 135.469 46.698 135.469C69.8692 113.38 95.2658 125.422 95.2658 125.422C69.6627 121.144 59.4536 141.502 59.4536 141.502C61.5757 139.3 64.042 138.921 64.042 138.921C49.8869 158.43 69.0777 174.36 69.0777 174.36C60.899 138.956 95.2658 128.439 95.2658 128.439C95.2658 128.439 86.1349 152.099 102.079 195.291C111.004 219.467 114.319 234.01 114.319 244.653L131.376 241.442C131.376 241.442 112.082 202.413 105.544 188.375C93.7401 163.04 95.5181 136.524 98.2826 128.45C98.2826 128.45 132.81 130.297 132.053 169.669C132.053 169.669 145.015 156.767 137.295 141.811C137.295 141.811 139.865 141.961 141.402 145.149C141.402 145.149 138.798 119.39 99.6706 125.835C99.6591 125.847 125.526 109.733 148.927 125.847Z" fill="#0F214F"/>
<path d="M210.376 140.882C210.376 140.882 209.986 132.556 220.918 128.53C220.918 128.53 220.149 128.347 218.004 128.794C218.004 128.794 237.207 117.612 249.079 137.912C249.079 137.912 245.317 119.562 221.342 119.286C221.342 119.286 225.564 112.004 238.962 114.871C238.962 114.871 238.193 113.747 235.979 113.254C235.979 113.254 251.052 113.839 251.052 136.283C252.016 113.495 272.824 116.66 272.824 116.66C270.931 117.062 270.071 118.541 270.071 118.541C283.721 117.107 287.277 127.017 287.277 127.017C262.42 118.3 252.75 137.625 252.75 137.625C264.874 122.911 278.743 130.159 278.743 130.159C276.77 129.631 275.795 130.492 275.795 130.492C289.411 134.506 291.544 148.532 291.544 148.532C273.145 130.996 252.991 140.561 252.991 140.561C273.317 137.167 281.415 153.326 281.415 153.326C279.729 151.583 277.779 151.273 277.779 151.273C289.021 166.768 273.776 179.407 273.776 179.407C280.268 151.308 252.991 142.947 252.991 142.947C252.991 142.947 264.806 168.465 250.96 200.59C242.862 219.376 243.722 229.491 239.799 243.392L224.302 240.754C224.302 240.754 235.819 218.883 246.211 198.25C260.24 170.415 252.784 149.369 250.593 142.958C250.593 142.958 223.178 144.426 223.786 175.679C223.786 175.679 213.496 165.437 219.622 153.567C219.622 153.567 217.58 153.693 216.364 156.216C216.364 156.216 218.429 135.767 249.492 140.882C249.492 140.882 228.959 128.095 210.376 140.882Z" fill="#0F214F"/>
<path d="M25.603 61.2767C25.603 61.2767 20.6246 49.6128 7.31836 61.2308C7.31836 61.2308 12.0214 50.3583 22.7123 54.533C23.7676 43.7866 36.5806 43.7866 36.5806 43.7866C32.4511 45.4381 29.2851 47.8237 27.6563 50.3124C24.1806 55.5766 25.603 61.2767 25.603 61.2767Z" fill="#0F214F"/>
<path d="M108.515 15.6075C108.515 15.6075 108.526 -0.00169905 87.8098 2.93434C87.8098 2.93434 100.393 -5.55265 109.031 6.34061C117.6 -4.53192 131.411 4.31061 131.411 4.31061C125.813 3.244 120.834 3.82892 117.267 5.19372C108.79 8.42795 108.515 15.6075 108.515 15.6075Z" fill="#0F214F"/>
<path d="M174.277 63.4788C174.277 63.4788 174.461 55.3473 163.621 58.6045C163.621 58.6045 169.242 53.5008 174.381 58.7765C177.845 52.7782 185.324 56.173 185.324 56.173C182.468 56.0469 180.001 56.5974 178.384 57.6181C174.954 59.7743 174.277 63.4788 174.277 63.4788Z" fill="#0F214F"/>
<path d="M231.334 16.2612C231.334 16.2612 239.226 6.56995 222.994 0.284986C222.994 0.284986 234.637 -0.598118 235.888 10.6414C245.753 6.63877 251.626 17.8095 251.626 17.8095C248.288 14.9652 244.766 13.3022 241.841 13.0155C235.658 12.4076 231.334 16.2612 231.334 16.2612Z" fill="#0F214F"/>
<path d="M317.411 93.6763C317.411 93.6763 317.032 86.4624 308.796 87.8043C308.796 87.8043 314.039 84.96 316.872 87.552C317.56 88.1828 318.042 88.9626 318.294 89.8916C321.128 84.7307 328.182 88.9397 328.182 88.9397C320.474 87.2423 317.411 93.6763 317.411 93.6763Z" fill="#0F214F"/>
<path d="M329.433 24.4271C329.433 24.4271 337.244 13.8872 324.168 6.26032C324.168 6.26032 334.801 8.33619 335.765 15.2405C335.994 16.9264 335.765 18.5665 335.065 20.1607C344.999 16.2039 350 30.2533 350 30.2533C341.145 18.9564 329.433 24.4271 329.433 24.4271Z" fill="#0F214F"/>
<path opacity="0.8" d="M254.941 77.5167C254.642 75.1312 252.612 73.2847 250.146 73.2847C250.146 69.5573 247.118 66.5295 243.39 66.5295C241.382 66.5295 239.581 67.4011 238.342 68.7888C237.792 68.6512 237.23 68.5709 236.633 68.5709C236.564 68.5709 236.495 68.5709 236.427 68.5709C235.601 65.7381 232.974 63.6622 229.877 63.6622C226.103 63.6622 223.052 66.713 223.052 70.4862C223.052 70.5436 223.052 70.6124 223.052 70.6697C222.627 70.5551 222.18 70.4862 221.721 70.4862C221.124 70.4862 220.562 70.5895 220.035 70.7844C219.186 69.3738 217.649 68.4333 215.882 68.4333C214.219 68.4333 212.751 69.2705 211.879 70.5551C211.604 70.5092 211.328 70.4862 211.042 70.4862C208.369 70.4862 206.201 72.6539 206.201 75.3261C206.201 75.4064 206.201 75.4752 206.201 75.5555C205.57 75.3605 204.905 75.2573 204.205 75.2573C202.186 75.2573 200.385 76.1289 199.135 77.5167H254.941Z" fill="#F1F2F2"/>
<path opacity="0.8" d="M24.9377 24.1977C24.2495 22.9476 22.9189 22.0989 21.3818 22.0989C20.7967 22.0989 20.2461 22.225 19.7414 22.443C19.512 21.0093 18.2617 19.9083 16.759 19.9083C16.3116 19.9083 15.8872 20.0115 15.4972 20.1836C15.0613 19.0596 13.9716 18.2683 12.6983 18.2683C11.0809 18.2683 9.76173 19.5528 9.69291 21.147C9.1423 21.3763 8.64906 21.7319 8.24757 22.1792C7.94933 21.4681 7.24961 20.9749 6.44664 20.9749C5.5978 20.9749 4.87513 21.514 4.6113 22.2709C4.16394 22.0301 3.64775 21.8924 3.09714 21.8924C1.62887 21.8924 0.401481 22.8673 0 24.2092H24.9377V24.1977Z" fill="#F1F2F2"/>
<path opacity="0.8" d="M103.066 59.3499C103.364 58.0195 104.546 57.0332 105.968 57.0332C106.806 57.0332 107.574 57.3887 108.113 57.9507C109.031 57.1594 110.167 56.6433 111.428 56.4942C111.52 54.0398 113.539 52.0786 116.028 52.0786C116.476 52.0786 116.911 52.1474 117.313 52.2621C118.036 50.6794 119.63 49.5784 121.477 49.5784C124 49.5784 126.054 51.6313 126.054 54.1545C126.054 54.51 126.008 54.8426 125.939 55.1752C126.753 55.3014 127.511 55.5767 128.176 55.9895C128.967 55.4276 129.942 55.1064 130.986 55.1064C132.81 55.1064 134.393 56.1042 135.242 57.5723C135.724 57.2397 136.309 57.0447 136.928 57.0447C138.351 57.0447 139.532 58.0425 139.83 59.3614H103.066V59.3499Z" fill="#F1F2F2"/>
<path d="M167.154 298.867C226.04 298.867 273.776 298.132 273.776 297.227C273.776 296.321 226.04 295.587 167.154 295.587C108.268 295.587 60.5319 296.321 60.5319 297.227C60.5319 298.132 108.268 298.867 167.154 298.867Z" fill="#4B4B4B"/>
<path d="M123.301 235.662C123.301 235.662 123.106 236.889 123.301 237.898C123.461 238.758 124.391 240.307 124.391 240.307C124.459 240.456 124.677 240.41 124.677 240.249C124.677 239.297 124.528 237.439 123.588 235.604C123.519 235.467 123.301 235.512 123.301 235.662Z" fill="#808285"/>
<path d="M123.312 241.43C123.243 241.293 123.06 241.27 122.957 241.373L122.945 238.196L123.289 238.219L123.312 241.43Z" fill="#808285"/>
<path d="M123.622 242.21C123.048 242.486 122.658 242.21 122.658 242.21L122.911 241.453C122.922 241.419 122.934 241.396 122.957 241.373C123.06 241.27 123.243 241.293 123.312 241.43C123.312 241.43 123.312 241.442 123.324 241.442L123.622 242.21Z" fill="#6D6E71"/>
<path d="M123.347 237.565L122.75 237.887C122.601 237.967 122.647 238.185 122.83 238.196L123.507 238.231C123.496 238.242 123.656 237.978 123.347 237.565Z" fill="#6D6E71"/>
<path d="M258.875 284.45H252.761L258.978 282.317L258.875 284.45Z" fill="#0F214F"/>
<path d="M79.6654 279.496L76.6141 272.442C76.2929 271.685 75.1573 271.731 74.9049 272.511C74.1938 274.656 73.2417 278.062 72.9893 281.388C72.7714 284.221 75.0885 286.652 78.0594 286.652C78.2889 286.652 78.4609 286.48 78.4724 286.262L78.4953 283.797L79.6654 279.496Z" fill="#0F214F"/>
<path d="M89.7369 281.423L85.16 286.308C84.6782 286.824 83.967 287.1 83.2444 287.065L80.629 286.928C78.656 286.824 77.1189 285.265 77.1189 283.384V281.423L78.3233 279.977H82.6364L89.7254 278.59V281.423H89.7369Z" fill="#0F214F"/>
<path d="M94.0385 276.663C94.0385 285.54 101.552 292.719 110.82 292.719C116.785 292.719 122.016 289.737 124.998 285.253C124.287 284.955 123.714 284.393 123.427 283.67C122.395 281.101 120.479 276.56 119.171 274.931C117.301 272.614 111.853 267.419 103.468 267.557C101.116 267.591 98.6842 267.763 96.3212 268.566C94.8644 270.928 94.0385 273.704 94.0385 276.663Z" fill="#0F214F"/>
<path d="M87.672 281.549C87.672 290.426 95.1854 297.617 104.454 297.617C113.722 297.617 121.236 290.426 121.236 281.549C121.236 272.672 113.722 265.492 104.454 265.492C99.1888 265.492 94.4857 267.82 91.4115 271.456C89.4385 273.784 88.1423 276.651 87.7752 279.782C87.7064 280.356 87.672 280.952 87.672 281.549Z" fill="#0F214F"/>
<path d="M104.454 295.564C112.538 295.564 119.091 289.289 119.091 281.549C119.091 273.808 112.538 267.534 104.454 267.534C96.3702 267.534 89.817 273.808 89.817 281.549C89.817 289.289 96.3702 295.564 104.454 295.564Z" fill="#E6E7E8"/>
<path d="M104.454 292.57C110.814 292.57 115.971 287.636 115.971 281.549C115.971 275.462 110.814 270.527 104.454 270.527C98.0934 270.527 92.9371 275.462 92.9371 281.549C92.9371 287.636 98.0934 292.57 104.454 292.57Z" fill="#797471"/>
<path d="M104.454 291.263C110.061 291.263 114.606 286.914 114.606 281.549C114.606 276.184 110.061 271.835 104.454 271.835C98.8473 271.835 94.3022 276.184 94.3022 281.549C94.3022 286.914 98.8473 291.263 104.454 291.263Z" fill="#605C57"/>
<path d="M96.8602 281.549C96.8602 285.563 100.267 288.82 104.454 288.82C108.652 288.82 112.048 285.563 112.048 281.549C112.048 281.067 112.002 280.597 111.91 280.15C111.222 276.801 108.148 274.277 104.454 274.277C100.76 274.277 97.6861 276.801 96.9979 280.15C96.9061 280.597 96.8602 281.067 96.8602 281.549Z" fill="#757475"/>
<path d="M96.9979 280.15C99.0512 281.709 101.632 282.638 104.454 282.638C107.276 282.638 109.857 281.709 111.91 280.15C111.222 276.801 108.148 274.277 104.454 274.277C100.76 274.277 97.6862 276.801 96.9979 280.15Z" fill="white"/>
<path d="M93.2814 281.549C93.2814 275.654 98.2941 270.848 104.454 270.848C110.614 270.848 115.627 275.642 115.627 281.549C115.627 287.444 110.614 292.249 104.454 292.249C98.2941 292.249 93.2814 287.444 93.2814 281.549ZM93.5337 281.549C93.5337 287.318 98.4318 291.997 104.454 291.997C110.476 291.997 115.374 287.306 115.374 281.549C115.374 275.78 110.476 271.101 104.454 271.101C98.4318 271.101 93.5337 275.791 93.5337 281.549Z" fill="#605C57"/>
<path d="M92.8109 281.549C92.8109 275.401 98.0302 270.401 104.454 270.401C110.878 270.401 116.097 275.401 116.097 281.549C116.097 287.696 110.878 292.697 104.454 292.697C98.0416 292.697 92.8109 287.696 92.8109 281.549ZM93.0747 281.549C93.0747 287.558 98.1793 292.444 104.465 292.444C110.74 292.444 115.856 287.558 115.856 281.549C115.856 275.539 110.751 270.653 104.465 270.653C98.1793 270.653 93.0747 275.539 93.0747 281.549Z" fill="#605C57"/>
<path d="M103.387 273.222H105.808C105.865 273.222 105.911 273.176 105.911 273.119V272.511C105.911 272.454 105.865 272.408 105.808 272.408H103.387C103.33 272.408 103.284 272.454 103.284 272.511V273.119C103.284 273.176 103.33 273.222 103.387 273.222Z" fill="#0F214F"/>
<path d="M97.319 276.686L98.8905 275.023C98.9479 274.966 98.9364 274.874 98.8791 274.828L98.4546 274.461C98.3973 274.415 98.3055 274.415 98.2482 274.472L96.6766 276.135C96.6193 276.193 96.6307 276.284 96.6881 276.33L97.1125 276.697C97.1699 276.755 97.2616 276.743 97.319 276.686Z" fill="#0F214F"/>
<path d="M95.759 282.569V280.264C95.759 280.207 95.7132 280.161 95.6558 280.161H95.0019C94.9446 280.161 94.8987 280.207 94.8987 280.264V282.569C94.8987 282.627 94.9446 282.673 95.0019 282.673H95.6558C95.7132 282.673 95.759 282.627 95.759 282.569Z" fill="#0F214F"/>
<path d="M99.0396 288.132L97.3878 286.549C97.3304 286.492 97.2387 286.492 97.1813 286.549L96.7798 286.939C96.7225 286.996 96.7225 287.077 96.7798 287.134L98.4316 288.717C98.489 288.774 98.5808 288.774 98.6381 288.717L99.0396 288.327C99.0969 288.281 99.0969 288.189 99.0396 288.132Z" fill="#0F214F"/>
<path d="M105.532 289.875H103.112C103.055 289.875 103.009 289.921 103.009 289.978V290.586C103.009 290.644 103.055 290.689 103.112 290.689H105.532C105.59 290.689 105.636 290.644 105.636 290.586V289.978C105.636 289.921 105.59 289.875 105.532 289.875Z" fill="#0F214F"/>
<path d="M111.337 286.744L109.685 288.327C109.627 288.384 109.627 288.464 109.685 288.522L110.086 288.912C110.144 288.969 110.235 288.969 110.293 288.912L111.945 287.329C112.002 287.272 112.002 287.191 111.945 287.134L111.543 286.744C111.486 286.687 111.394 286.687 111.337 286.744Z" fill="#0F214F"/>
<path d="M113.16 280.528V282.833C113.16 282.891 113.206 282.936 113.264 282.936H113.917C113.975 282.936 114.021 282.891 114.021 282.833V280.528C114.021 280.471 113.975 280.425 113.917 280.425H113.264C113.206 280.425 113.16 280.471 113.16 280.528Z" fill="#0F214F"/>
<path d="M109.88 274.966L111.531 276.548C111.589 276.606 111.681 276.606 111.738 276.548L112.139 276.158C112.197 276.101 112.197 276.021 112.139 275.963L110.488 274.381C110.43 274.323 110.339 274.323 110.281 274.381L109.88 274.771C109.822 274.816 109.822 274.908 109.88 274.966Z" fill="#0F214F"/>
<path d="M104.454 283.957C105.841 283.957 106.966 282.879 106.966 281.549C106.966 280.219 105.841 279.14 104.454 279.14C103.067 279.14 101.942 280.219 101.942 281.549C101.942 282.879 103.067 283.957 104.454 283.957Z" fill="#E6E7E8"/>
<path d="M104.454 283.762C105.727 283.762 106.76 282.771 106.76 281.549C106.76 280.326 105.727 279.335 104.454 279.335C103.181 279.335 102.148 280.326 102.148 281.549C102.148 282.771 103.181 283.762 104.454 283.762Z" fill="#6D6E71"/>
<path d="M86.3529 279.083L87.7753 279.771C88.1424 276.629 89.4386 273.773 91.4116 271.445C89.5418 273.153 87.8212 275.585 86.3529 279.083Z" fill="#0F214F"/>
<path d="M206.774 285.574C209.757 290.013 214.965 292.949 220.895 292.949C230.163 292.949 237.677 285.758 237.677 276.881C237.677 273.062 236.277 269.552 233.949 266.788C231.896 266.157 229.521 265.802 226.791 265.813C223.12 265.825 213.06 268.187 208.667 284.255C208.587 284.553 208.426 284.817 208.208 285.035C207.875 285.368 207.405 285.563 206.9 285.563H206.774V285.574Z" fill="#0F214F"/>
<path d="M208.22 285.047L211.569 286.217H243.39C245.213 286.434 247.657 286.217 247.657 286.217C247.657 286.217 247.531 281.113 244.881 276.021C242.22 270.906 237 265.79 226.803 265.825C223.132 265.836 213.072 268.199 208.679 284.267C208.587 284.565 208.438 284.829 208.22 285.047Z" fill="#0F214F"/>
<path d="M210.64 281.778C210.64 290.655 218.154 297.846 227.422 297.846C236.691 297.846 244.204 290.655 244.204 281.778C244.204 272.901 236.691 265.722 227.422 265.722C222.157 265.722 217.454 268.05 214.38 271.685C212.407 274.014 211.11 276.881 210.743 280.012C210.675 280.597 210.64 281.182 210.64 281.778Z" fill="#0F214F"/>
<path d="M227.422 295.793C235.506 295.793 242.059 289.518 242.059 281.778C242.059 274.038 235.506 267.763 227.422 267.763C219.338 267.763 212.785 274.038 212.785 281.778C212.785 289.518 219.338 295.793 227.422 295.793Z" fill="#E6E7E8"/>
<path d="M227.422 292.8C233.782 292.8 238.939 287.865 238.939 281.778C238.939 275.691 233.782 270.756 227.422 270.756C221.061 270.756 215.905 275.691 215.905 281.778C215.905 287.865 221.061 292.8 227.422 292.8Z" fill="#797471"/>
<path d="M227.422 291.492C233.029 291.492 237.574 287.143 237.574 281.778C237.574 276.413 233.029 272.064 227.422 272.064C221.815 272.064 217.27 276.413 217.27 281.778C217.27 287.143 221.815 291.492 227.422 291.492Z" fill="#605C57"/>
<path d="M219.817 281.778C219.817 285.792 223.224 289.049 227.41 289.049C231.609 289.049 235.004 285.792 235.004 281.778C235.004 281.296 234.958 280.826 234.866 280.379C234.178 277.03 231.104 274.507 227.41 274.507C223.717 274.507 220.643 277.03 219.954 280.379C219.874 280.838 219.817 281.296 219.817 281.778Z" fill="#757475"/>
<path d="M219.966 280.379C222.019 281.939 224.6 282.868 227.422 282.868C230.244 282.868 232.825 281.939 234.878 280.379C234.19 277.03 231.116 274.507 227.422 274.507C223.728 274.507 220.643 277.03 219.966 280.379Z" fill="white"/>
<path d="M216.249 281.778C216.249 275.883 221.262 271.078 227.422 271.078C233.582 271.078 238.595 275.872 238.595 281.778C238.595 287.673 233.582 292.479 227.422 292.479C221.262 292.479 216.249 287.685 216.249 281.778ZM216.502 281.778C216.502 287.547 221.4 292.226 227.422 292.226C233.444 292.226 238.342 287.535 238.342 281.778C238.342 276.021 233.444 271.33 227.422 271.33C221.4 271.33 216.502 276.021 216.502 281.778Z" fill="#605C57"/>
<path d="M215.779 281.778C215.779 275.631 220.998 270.63 227.422 270.63C233.846 270.63 239.065 275.631 239.065 281.778C239.065 287.925 233.846 292.926 227.422 292.926C220.998 292.926 215.779 287.925 215.779 281.778ZM216.031 281.778C216.031 287.788 221.136 292.674 227.422 292.674C233.696 292.674 238.812 287.788 238.812 281.778C238.812 275.768 233.708 270.883 227.422 270.883C221.136 270.883 216.031 275.768 216.031 281.778Z" fill="#605C57"/>
<path d="M226.344 273.452H228.764C228.821 273.452 228.867 273.406 228.867 273.348V272.741C228.867 272.683 228.821 272.637 228.764 272.637H226.344C226.286 272.637 226.24 272.683 226.24 272.741V273.348C226.24 273.406 226.286 273.452 226.344 273.452Z" fill="#0F214F"/>
<path d="M220.276 276.927L221.847 275.264C221.905 275.206 221.893 275.115 221.836 275.069L221.411 274.702C221.354 274.656 221.262 274.656 221.205 274.713L219.633 276.376C219.576 276.434 219.587 276.525 219.645 276.571L220.069 276.938C220.138 276.984 220.23 276.984 220.276 276.927Z" fill="#0F214F"/>
<path d="M218.716 282.799V280.494C218.716 280.436 218.67 280.39 218.612 280.39H217.959C217.901 280.39 217.855 280.436 217.855 280.494V282.799C217.855 282.856 217.901 282.902 217.959 282.902H218.612C218.67 282.914 218.716 282.856 218.716 282.799Z" fill="#0F214F"/>
<path d="M221.996 288.373L220.345 286.79C220.287 286.733 220.195 286.733 220.138 286.79L219.737 287.18C219.679 287.237 219.679 287.318 219.737 287.375L221.388 288.958C221.446 289.015 221.538 289.015 221.595 288.958L221.996 288.568C222.054 288.51 222.054 288.419 221.996 288.373Z" fill="#0F214F"/>
<path d="M228.489 290.104H226.069C226.011 290.104 225.965 290.15 225.965 290.208V290.816C225.965 290.873 226.011 290.919 226.069 290.919H228.489C228.546 290.919 228.592 290.873 228.592 290.816V290.208C228.592 290.162 228.546 290.104 228.489 290.104Z" fill="#0F214F"/>
<path d="M234.305 286.974L232.653 288.556C232.595 288.614 232.595 288.694 232.653 288.751L233.054 289.141C233.112 289.199 233.203 289.199 233.261 289.141L234.912 287.558C234.97 287.501 234.97 287.421 234.912 287.363L234.511 286.974C234.454 286.916 234.35 286.916 234.305 286.974Z" fill="#0F214F"/>
<path d="M236.117 280.757V283.063C236.117 283.12 236.163 283.166 236.22 283.166H236.874C236.931 283.166 236.977 283.12 236.977 283.063V280.757C236.977 280.7 236.931 280.654 236.874 280.654H236.22C236.163 280.654 236.117 280.7 236.117 280.757Z" fill="#0F214F"/>
<path d="M232.836 275.195L234.488 276.778C234.545 276.835 234.637 276.835 234.695 276.778L235.096 276.388C235.153 276.33 235.153 276.25 235.096 276.193L233.444 274.61C233.387 274.553 233.295 274.553 233.238 274.61L232.836 275C232.779 275.057 232.779 275.138 232.836 275.195Z" fill="#0F214F"/>
<path d="M227.422 284.187C228.809 284.187 229.934 283.108 229.934 281.778C229.934 280.448 228.809 279.37 227.422 279.37C226.035 279.37 224.91 280.448 224.91 281.778C224.91 283.108 226.035 284.187 227.422 284.187Z" fill="#E6E7E8"/>
<path d="M227.422 283.992C228.695 283.992 229.728 283.001 229.728 281.778C229.728 280.556 228.695 279.565 227.422 279.565C226.149 279.565 225.116 280.556 225.116 281.778C225.116 283.001 226.149 283.992 227.422 283.992Z" fill="#6D6E71"/>
<path d="M84.4373 279.278H76.7403C76.2241 279.278 75.7652 279.576 75.5588 280.023L74.3658 282.719C74.0102 283.51 74.6411 284.393 75.5473 284.37L82.9919 284.141C84.139 284.106 85.0567 283.2 85.0567 282.099V279.874C85.0567 279.553 84.7814 279.278 84.4373 279.278Z" fill="#0F214F"/>
<path d="M262.729 270.068L258.829 275.654L258.279 282.684H258.99C261.858 282.684 264.175 280.459 264.175 277.718V270.493C264.175 269.736 263.165 269.438 262.729 270.068Z" fill="#0F214F"/>
<path d="M75.0999 257.567C75.0655 261.673 79.8259 273.383 82.6133 279.874C83.2442 281.354 85.4581 281.342 86.0546 279.84C86.1579 279.576 86.2611 279.324 86.3643 279.083C88.3832 274.3 90.8495 271.502 93.5336 269.862C94.4513 269.3 95.3919 268.876 96.344 268.554C98.6955 267.752 101.127 267.591 103.49 267.545C111.864 267.419 117.324 272.603 119.194 274.92C120.502 276.548 122.417 281.09 123.45 283.659C123.736 284.382 124.31 284.944 125.021 285.242C125.4 285.402 125.813 285.494 126.237 285.494L206.809 285.563H206.935C207.44 285.563 207.91 285.368 208.243 285.035C208.46 284.829 208.621 284.554 208.701 284.255C213.095 268.187 223.155 265.825 226.825 265.813C229.555 265.802 231.918 266.169 233.983 266.788C239.638 268.509 242.953 272.259 244.915 276.009C247.576 281.113 247.691 286.205 247.691 286.205L258.336 282.512C259.162 282.225 259.758 281.526 259.884 280.7C261.502 270.057 258.978 258.978 257.51 253.817C256.971 251.902 255.87 250.17 254.355 248.816C251.396 246.179 246.246 241.855 243.814 241.258C243.791 241.247 243.768 241.247 243.733 241.247C243.527 241.213 243.321 241.247 243.137 241.339L242.128 241.82C242.128 241.82 234.499 228.895 231.655 222.793C231.299 222.037 231.437 221.188 231.941 220.568C232.068 220.419 232.228 220.27 232.4 220.156L232.572 220.041C232.802 219.846 232.882 219.548 232.825 219.295C232.767 219.066 232.618 218.871 232.366 218.768C229.292 217.46 220.711 213.905 215.641 212.815C206.878 210.935 175.241 205.017 141.838 213.71L139.819 214.215C139.314 214.341 139.188 214.926 139.509 215.235C139.555 215.293 139.624 215.327 139.693 215.373L140.358 215.694L143.776 217.346C143.822 217.369 143.856 217.38 143.891 217.403C145.244 218.16 145.703 219.823 144.923 221.13L133.556 240.215C132.168 242.543 129.059 243.334 126.639 241.981C125.457 241.316 124.356 240.57 123.782 239.825C123.668 239.676 123.496 239.584 123.312 239.561C123.174 239.538 123.037 239.561 122.911 239.618C121.752 240.134 119.102 241.442 117.428 243.208C117.428 243.208 96.8028 243.564 80.996 249.596C79.585 250.135 77.1188 251.053 75.8685 253.771C75.4096 254.757 75.1114 256.007 75.0999 257.567ZM190.497 222.254C190.486 220.741 191.805 219.525 193.388 219.594L206.086 220.133C212.372 220.396 218.027 223.837 220.952 229.17L225.495 237.462C227.571 241.086 225.598 244.481 222.478 244.481H193.847C192.046 244.481 190.589 243.093 190.577 241.362L190.497 222.254ZM137.043 242.52L150.12 222.163C150.521 221.532 151.232 221.153 152.001 221.142L184.521 220.935C185.496 220.924 186.287 221.681 186.287 222.621V240.261C186.287 242.944 184.016 244.94 181.206 244.94L139.601 245.101H139.589H138.545C137.169 245.112 136.32 243.655 137.043 242.52Z" fill="#D1D3D4"/>
<path d="M181.711 252.578C181.711 253.037 181.481 253.473 181.08 253.828C180.38 254.471 179.153 254.883 177.765 254.883C175.585 254.883 173.819 253.851 173.819 252.567C173.819 251.294 175.585 250.25 177.765 250.25C179.13 250.25 180.323 250.651 181.034 251.271C181.47 251.649 181.711 252.097 181.711 252.578Z" fill="#0F214F"/>
<path opacity="0.2" d="M185.071 252.578C185.071 252.957 184.911 253.301 184.647 253.553C184.383 253.805 184.028 253.954 183.638 253.954L181.091 253.828C181.493 253.473 181.722 253.037 181.722 252.578C181.722 252.097 181.47 251.661 181.045 251.282L183.638 251.202C184.418 251.202 185.071 251.821 185.071 252.578Z" fill="#58595B"/>
<path d="M175.516 253.243L183.5 253.53C184.051 253.53 184.498 253.094 184.498 252.567C184.498 252.039 184.051 251.603 183.5 251.603L175.516 251.89C174.966 251.89 174.518 252.039 174.518 252.567C174.518 253.106 174.966 253.243 175.516 253.243Z" fill="#F1F2F2"/>
<path opacity="0.55" d="M231.62 222.793C234.477 228.906 242.093 241.82 242.093 241.82L242.472 241.637L243.114 241.339C243.114 241.339 243.091 241.27 243.057 241.155C242.518 239.572 238.457 228.023 232.137 220.809C232.079 220.741 232.033 220.683 231.976 220.626C231.965 220.603 231.942 220.58 231.919 220.557H231.907C231.391 221.188 231.265 222.048 231.62 222.793Z" fill="#FDFFFB"/>
<path opacity="0.55" d="M123.771 239.825C124.092 240.238 124.562 240.651 125.125 241.041C125.583 241.373 126.1 241.683 126.627 241.981C127.029 242.21 127.465 242.371 127.889 242.486C130.034 243.025 132.386 242.153 133.544 240.215L144.912 221.13C145.325 220.442 145.382 219.651 145.153 218.951C144.946 218.321 144.51 217.759 143.868 217.403C143.834 217.38 143.788 217.357 143.753 217.346L140.335 215.694C140.335 215.694 140.324 215.706 140.312 215.729C140.289 215.752 140.266 215.797 140.232 215.843C138.981 217.529 127.442 233.196 123.886 239.664C123.84 239.71 123.805 239.767 123.771 239.825Z" fill="#FDFFFB"/>
<path d="M190.52 221.91L203.207 222.449C209.493 222.713 215.148 226.154 218.073 231.487L222.616 239.779C223.602 241.499 223.671 243.162 223.155 244.435C225.873 243.988 227.411 240.834 225.495 237.474L220.952 229.182C218.027 223.849 212.372 220.408 206.086 220.144L193.388 219.605C191.931 219.536 190.692 220.568 190.52 221.91Z" fill="#58595B"/>
<path d="M190.394 241.373L190.314 222.254C190.314 222.117 190.325 221.991 190.337 221.876L190.359 221.715L203.218 222.266C209.539 222.53 215.297 226.039 218.245 231.395L222.788 239.687C223.74 241.339 223.923 243.048 223.338 244.493L223.304 244.584L223.201 244.607C222.971 244.653 222.742 244.665 222.49 244.665H193.858C191.954 244.676 190.394 243.197 190.394 241.373ZM222.455 239.859L217.913 231.567C215.033 226.314 209.39 222.885 203.207 222.621L190.692 222.094C190.692 222.151 190.692 222.197 190.692 222.254L190.772 241.373C190.784 242.99 192.16 244.309 193.858 244.309H222.49C222.685 244.309 222.857 244.298 223.029 244.275C223.533 242.944 223.327 241.385 222.455 239.859Z" fill="#0F214F"/>
<path d="M190.394 241.373L190.314 222.254C190.314 222.117 190.325 221.991 190.337 221.876L190.359 221.715L203.218 222.266C209.539 222.53 215.297 226.039 218.245 231.395L222.788 239.687C223.74 241.339 223.923 243.048 223.338 244.493L223.304 244.584L223.201 244.607C222.971 244.653 222.742 244.665 222.49 244.665H193.858C191.954 244.676 190.394 243.197 190.394 241.373ZM222.455 239.859L217.913 231.567C215.033 226.314 209.39 222.885 203.207 222.621L190.692 222.094C190.692 222.151 190.692 222.197 190.692 222.254L190.772 241.373C190.784 242.99 192.16 244.309 193.858 244.309H222.49C222.685 244.309 222.857 244.298 223.029 244.275C223.533 242.944 223.327 241.385 222.455 239.859Z" fill="#0F214F"/>
<path d="M137.593 244.837C137.57 244.527 137.651 244.206 137.846 243.896L150.441 224.284C150.831 223.677 151.519 223.31 152.253 223.31L183.58 223.115C184.521 223.103 185.289 223.837 185.289 224.732V241.717C185.289 242.359 185.152 242.967 184.911 243.518C185.771 242.692 186.31 241.557 186.31 240.261V222.621C186.31 221.681 185.507 220.924 184.544 220.935L152.024 221.142C151.255 221.153 150.544 221.532 150.143 222.163L137.066 242.52C136.504 243.357 136.825 244.366 137.593 244.837Z" fill="#58595B"/>
<path d="M137.49 244.986L137.41 244.94V244.848C137.387 244.481 137.479 244.126 137.685 243.805L150.28 224.193C150.705 223.527 151.439 223.138 152.253 223.126L183.58 222.931C184.096 222.931 184.567 223.115 184.922 223.459C185.278 223.803 185.473 224.25 185.473 224.732V241.717C185.473 242.371 185.335 243.002 185.071 243.587L185.037 243.644C184.039 244.596 182.686 245.112 181.229 245.112L138.568 245.284C138.167 245.284 137.8 245.181 137.49 244.986ZM185.094 241.717V224.732C185.094 224.342 184.934 223.986 184.647 223.711C184.36 223.436 183.97 223.298 183.569 223.287L152.242 223.482C151.565 223.482 150.946 223.814 150.579 224.376L137.983 243.988C137.834 244.217 137.766 244.47 137.754 244.722C137.983 244.848 138.259 244.917 138.534 244.917L181.194 244.745C182.548 244.745 183.798 244.263 184.716 243.403C184.968 242.887 185.094 242.314 185.094 241.717Z" fill="#0F214F"/>
<path d="M137.49 244.986L137.41 244.94V244.848C137.387 244.481 137.479 244.126 137.685 243.816L150.28 224.204C150.705 223.539 151.439 223.149 152.253 223.149L183.58 222.954C184.085 222.931 184.555 223.138 184.911 223.47C185.267 223.814 185.462 224.261 185.462 224.743V241.717C185.462 242.371 185.324 243.002 185.06 243.587L185.026 243.644C184.039 244.596 182.686 245.112 181.217 245.112L138.557 245.284C138.178 245.284 137.8 245.181 137.49 244.986ZM185.094 241.717V224.732C185.094 224.342 184.934 223.975 184.647 223.699C184.36 223.424 183.982 223.275 183.569 223.275L152.242 223.47C151.554 223.47 150.934 223.814 150.579 224.365L137.983 243.977C137.834 244.206 137.754 244.458 137.754 244.722C137.995 244.848 138.259 244.917 138.546 244.917L181.206 244.745C182.559 244.745 183.81 244.263 184.739 243.392C184.98 242.887 185.094 242.314 185.094 241.717Z" fill="#0F214F"/>
<path opacity="0.55" d="M190.497 222.254L190.577 241.373C190.589 243.093 192.046 244.493 193.847 244.493H222.478C225.598 244.493 227.571 241.098 225.495 237.474L220.941 229.182C218.016 223.849 212.361 220.408 206.075 220.144L193.376 219.605C191.805 219.536 190.486 220.741 190.497 222.254Z" fill="#FDFFFB"/>
<path opacity="0.55" d="M184.521 220.947L152.001 221.153C151.232 221.153 150.521 221.543 150.12 222.174L137.043 242.531C136.32 243.667 137.169 245.123 138.557 245.112L181.217 244.951C184.016 244.951 186.287 242.956 186.287 240.272V222.633C186.287 221.692 185.496 220.935 184.521 220.947Z" fill="#FDFFFB"/>
<path d="M252.256 257.751L254.115 262.464L257.338 270.653L260.057 269.174C260.619 268.864 260.894 268.245 260.722 267.648C260.561 267.064 260.321 266.261 260.022 265.355C259.632 264.162 259.116 262.797 258.52 261.513C257.831 260.033 257.017 258.645 256.099 257.728C255.835 257.475 255.48 257.326 255.101 257.303C254.574 257.28 253.771 257.303 252.933 257.533C252.704 257.579 252.474 257.659 252.256 257.751Z" fill="#AD0303"/>
<path d="M252.256 257.751L254.115 262.464L258.52 261.513C257.831 260.033 257.017 258.645 256.099 257.728C255.835 257.475 255.48 257.326 255.101 257.303C254.574 257.28 253.771 257.303 252.933 257.533C252.704 257.579 252.474 257.659 252.256 257.751Z" fill="#FCA713"/>
<path opacity="0.47" d="M252.922 257.521L257.006 266.536L260.011 265.343C259.162 262.786 257.797 259.414 256.088 257.716C255.824 257.464 255.468 257.315 255.09 257.292C254.574 257.28 253.759 257.303 252.922 257.521Z" fill="#E6E7E8"/>
<path d="M252.257 257.751L250.674 258.232L255.858 271.445L257.338 270.642L252.257 257.751Z" fill="#58595B"/>
<path d="M77.9906 253.771L77.7612 265.618C77.7612 265.618 76.0864 265.217 75.6849 264.747L75.8799 254.574C75.8685 254.574 76.66 253.737 77.9906 253.771Z" fill="#58595B"/>
<path d="M75.6735 264.563C75.6735 264.563 74.079 260.113 75.857 254.998L75.6735 264.563Z" fill="#D1D3D4"/>
<path d="M260.16 276.239L250.937 279.863C250.398 280.081 250.054 280.597 250.089 281.159L250.238 283.521C250.284 284.152 251.27 284.921 251.912 284.737L260.252 281.87C260.883 281.686 261.296 281.101 261.238 280.459L260.848 276.617C260.802 276.319 260.458 276.124 260.16 276.239Z" fill="#0F214F"/>
<path d="M263.326 270.94L259.426 276.525L258.875 283.556H259.586C262.454 283.556 264.771 281.331 264.771 278.59V271.364C264.783 270.607 263.762 270.321 263.326 270.94Z" fill="#0F214F"/>
<path d="M78.3233 279.966L75.2721 272.913C74.9509 272.156 73.8153 272.202 73.5629 272.981C72.8517 275.126 71.8996 278.532 71.6473 281.858C71.4293 284.691 73.7464 287.123 76.7174 287.123C76.9468 287.123 77.1189 286.951 77.1304 286.733L77.1533 284.267L78.3233 279.966Z" fill="#0F214F"/>
<path d="M84.965 279.966H77.268C76.7518 279.966 76.2929 280.264 76.0865 280.711L74.8935 283.407C74.5379 284.198 75.1688 285.081 76.075 285.058L83.5196 284.829C84.6667 284.794 85.5844 283.888 85.5844 282.787V280.562C85.5844 280.23 85.3091 279.966 84.965 279.966Z" fill="#0F214F"/>
<path d="M78.7363 270.355L76.7977 276.434L78.3234 279.966H82.6479L78.7363 270.355Z" fill="#0F214F"/>
<path d="M226.355 218.47C226.355 218.47 184.154 206.439 145.279 215.786C145.279 215.786 183.534 210.373 226.355 218.47Z" fill="#E6E7E8"/>
<path d="M243.045 241.167C242.506 239.584 238.446 228.035 232.125 220.821C234.511 223.849 242.46 241.648 242.46 241.648L243.103 241.35C243.103 241.35 243.08 241.281 243.045 241.167Z" fill="#BCBEC0"/>
<path d="M231.907 220.568C231.93 220.592 231.953 220.615 231.976 220.638C231.953 220.626 231.93 220.592 231.907 220.568Z" fill="#BCBEC0"/>
<path d="M123.771 239.825C124.092 240.238 124.562 240.651 125.125 241.041C126.65 236.35 139.658 216.681 140.301 215.717C140.278 215.74 140.255 215.786 140.22 215.832C138.97 217.518 127.43 233.184 123.874 239.653C123.84 239.71 123.805 239.767 123.771 239.825Z" fill="#D1D3D4"/>
<path d="M127.889 242.474C130.034 243.013 132.386 242.141 133.544 240.203L144.912 221.119C145.325 220.431 145.382 219.639 145.153 218.94C143.868 220.603 133.429 234.113 127.889 242.474Z" fill="#D1D3D4"/>
<path d="M213.106 247.004C215.676 246.993 240.774 248.22 240.774 248.22L120.823 248.553C120.823 248.553 126.845 247.761 128.887 247.681C160.26 246.454 183.89 247.108 213.106 247.004Z" fill="#E6E7E8"/>
<path d="M123.668 239.985C124.207 240.651 125.17 241.362 126.535 242.13C127.35 242.589 128.245 242.818 129.162 242.818C129.621 242.818 130.08 242.761 130.527 242.646C131.881 242.291 133.017 241.465 133.705 240.295L145.072 221.211C145.898 219.834 145.405 218.045 143.971 217.242C143.925 217.22 143.891 217.197 143.845 217.174L140.438 215.534L140.346 215.683C140.346 215.683 140.312 215.729 140.232 215.832L140.289 215.855L143.696 217.495C143.742 217.518 143.765 217.529 143.799 217.541C145.061 218.252 145.497 219.812 144.774 221.027L133.407 240.111C132.753 241.201 131.709 241.969 130.447 242.291C129.185 242.612 127.878 242.44 126.742 241.82C125.377 241.052 124.436 240.352 123.943 239.71L123.886 239.653C123.851 239.71 123.817 239.767 123.794 239.825L123.668 239.985Z" fill="#422603"/>
<path d="M231.448 222.874C232.859 225.902 235.463 230.627 237.723 234.618C239.983 238.609 241.898 241.855 241.933 241.924L242.024 242.073L243.194 241.511L243.114 241.35C243.114 241.35 243.091 241.281 243.057 241.167L242.185 241.591C241.336 240.134 234.454 228.402 231.804 222.725C231.678 222.461 231.62 222.186 231.62 221.91C231.62 221.486 231.758 221.062 232.045 220.718C232.01 220.672 231.965 220.626 231.93 220.58L231.781 220.465C231.196 221.142 231.07 222.071 231.448 222.874Z" fill="#422603"/>
<g opacity="0.32">
<path opacity="0.32" d="M199.468 244.493L216.341 223.837C218.211 225.271 219.794 227.071 220.952 229.17L221.962 231.005L210.95 244.481H199.468V244.493Z" fill="#D1D3D4"/>
<path opacity="0.32" d="M190.497 222.92L193.204 219.605C193.262 219.605 193.319 219.605 193.388 219.605L204.308 220.064L190.555 236.9L190.497 222.92Z" fill="#D1D3D4"/>
<path opacity="0.32" d="M193.847 244.493C192.046 244.493 190.589 243.105 190.578 241.373V240.18L206.901 220.19C209.092 220.385 211.191 220.958 213.106 221.864L194.627 244.481H193.847V244.493Z" fill="#D1D3D4"/>
<path opacity="0.32" d="M213.393 244.493L222.937 232.806L225.495 237.474C225.678 237.783 225.816 238.093 225.942 238.403L220.964 244.493H213.393Z" fill="#D1D3D4"/>
</g>
<g opacity="0.32">
<path opacity="0.32" d="M160.26 245.02L179.91 220.97L184.521 220.935C185.496 220.924 186.287 221.681 186.287 222.621V227.209L171.777 244.974L160.26 245.02Z" fill="#D1D3D4"/>
<path opacity="0.32" d="M138.557 245.101C137.169 245.101 136.32 243.656 137.043 242.52L141.975 234.836L153.171 221.131L164.71 221.062L145.095 245.078L138.557 245.101Z" fill="#D1D3D4"/>
<path opacity="0.32" d="M147.802 245.066L167.418 221.05L175.034 221.004L155.396 245.043L147.802 245.066Z" fill="#D1D3D4"/>
<path opacity="0.32" d="M181.217 244.94L174.22 244.963L186.287 230.191V239.469L181.848 244.906C181.642 244.928 181.424 244.94 181.217 244.94Z" fill="#D1D3D4"/>
</g>
<path d="M190.394 241.373L190.314 222.254C190.314 222.117 190.325 221.991 190.337 221.887C190.52 220.442 191.874 219.364 193.399 219.422L206.098 219.961C212.429 220.224 218.176 223.722 221.124 229.09L225.667 237.382C226.676 239.137 226.825 241.006 226.08 242.486C225.506 243.621 224.451 244.401 223.201 244.607C222.971 244.653 222.742 244.665 222.489 244.665H193.858C191.954 244.676 190.394 243.197 190.394 241.373ZM190.704 221.933C190.692 222.025 190.681 222.14 190.681 222.254L190.761 241.373C190.772 242.99 192.149 244.309 193.847 244.309H222.478C222.707 244.309 222.914 244.286 223.12 244.252C224.256 244.068 225.208 243.357 225.724 242.325C226.412 240.949 226.275 239.206 225.323 237.543L220.78 229.25C217.901 223.998 212.269 220.568 206.075 220.305L193.376 219.766C193.342 219.766 193.296 219.766 193.262 219.766C191.977 219.777 190.864 220.706 190.704 221.933Z" fill="#0F214F"/>
<path d="M137.49 244.986C136.584 244.424 136.32 243.3 136.882 242.428L149.959 222.071C150.395 221.383 151.163 220.981 152.001 220.97L184.521 220.763C185.037 220.752 185.53 220.947 185.909 221.303C186.276 221.658 186.482 222.128 186.482 222.621V240.261C186.482 241.545 185.966 242.749 185.037 243.644C184.039 244.596 182.686 245.112 181.229 245.112L138.568 245.284C138.167 245.284 137.8 245.181 137.49 244.986ZM184.521 221.119L152.001 221.325C151.29 221.337 150.647 221.681 150.269 222.254L137.192 242.612C136.687 243.403 137.043 244.286 137.685 244.688C137.938 244.848 138.236 244.928 138.545 244.928L181.206 244.756C182.571 244.756 183.833 244.275 184.75 243.392C185.611 242.566 186.092 241.453 186.092 240.261V222.621C186.092 222.22 185.932 221.842 185.622 221.555C185.324 221.268 184.934 221.119 184.521 221.119Z" fill="#0F214F"/>
<path d="M214.139 269.093C214.139 269.093 211.34 272.27 208.897 275.814C208.449 276.457 207.738 278.039 207.119 279.519C206.866 280.344 206.625 281.17 206.43 281.87C206.132 282.936 205.134 283.682 203.987 283.705C200.672 283.762 194.225 283.67 189.866 283.716C189.866 283.716 202.989 283.189 204.205 281.652C205.409 280.138 205.994 277.466 208.231 274.954C211.042 271.789 213.955 269.128 214.139 269.093Z" fill="#E6E7E8"/>
<path d="M119.091 271.835C119.091 271.835 121.282 274.312 123.186 277.087C123.53 277.592 124.092 278.819 124.574 279.977C124.769 280.62 124.964 281.273 125.113 281.812C125.342 282.65 126.122 283.223 127.029 283.246C129.621 283.292 130.241 283.166 133.647 283.212C133.647 283.212 127.809 282.845 126.857 281.64C125.916 280.459 125.457 278.372 123.714 276.411C121.511 273.945 119.24 271.857 119.091 271.835Z" fill="#E6E7E8"/>
<path d="M247.657 270.883C247.657 270.883 242.414 263.818 233.995 262.453C225.575 261.088 218.612 264.368 217.293 265.722C217.293 265.722 215.584 265.584 219.989 262.74C227.583 257.842 240.785 259.265 245.81 266.536C247.037 268.291 248.712 270.986 247.657 270.883Z" fill="#E6E7E8"/>
<path d="M116.028 268.681C116.028 268.681 110.901 264.632 103.812 264.804C96.7226 264.976 91.3542 268.061 90.4251 269.139C90.4251 269.139 88.7044 268.222 92.1572 265.962C97.7779 262.304 106.461 261.409 113.069 265.435C115.73 267.041 116.911 268.623 116.028 268.681Z" fill="#E6E7E8"/>
<path d="M159.067 243.873C158.883 243.885 158.688 243.896 158.482 243.908L159.067 243.873Z" fill="#E6E7E8"/>
<path d="M158.482 243.919L157.805 243.965C158.046 243.942 158.275 243.931 158.482 243.919Z" fill="#E6E7E8"/>
<path d="M75.8685 253.76C76.0291 253.679 87.5574 247.406 124.792 245.066L117.428 243.208C117.428 243.208 96.8029 243.564 80.996 249.596C79.5851 250.124 77.1074 251.041 75.8685 253.76Z" fill="#E6E7E8"/>
<path d="M130.585 276.239C129.828 266.673 130.367 253.438 130.539 251.328C130.814 247.91 133.842 244.103 134.393 243.552C134.852 243.082 135.632 241.889 135.942 241.396C139.073 236.51 148.33 221.681 148.422 221.532C149.271 220.19 150.808 219.353 152.437 219.353L185.301 219.307C185.301 219.307 185.301 219.307 185.312 219.307C186.253 219.307 186.999 219.571 187.526 220.087C188.088 220.637 188.375 221.452 188.352 222.461C188.306 224.319 188.387 227.106 188.501 230.959C188.559 233.024 188.627 235.363 188.685 237.978C188.972 250.365 189.258 252.108 190.015 256.787C190.577 260.216 190.073 271.032 190.05 271.479C190.05 278.785 184.314 284.508 176.996 284.508H139.865C135.116 284.508 130.952 280.792 130.585 276.239ZM185.324 219.662L152.46 219.708C150.957 219.708 149.535 220.477 148.755 221.715C148.663 221.864 139.394 236.694 136.263 241.58C135.861 242.199 135.127 243.311 134.668 243.793C134.141 244.332 131.193 248.037 130.917 251.351C130.745 253.461 130.206 266.662 130.963 276.204C131.307 280.585 135.311 284.152 139.876 284.152H177.007C184.119 284.152 189.683 278.59 189.694 271.467C189.694 271.353 190.222 260.228 189.66 256.833C188.891 252.142 188.604 250.388 188.318 237.978C188.26 235.363 188.191 233.024 188.134 230.959C188.019 227.106 187.939 224.307 187.985 222.449C188.008 221.543 187.756 220.809 187.274 220.328C186.815 219.88 186.161 219.662 185.324 219.662Z" fill="#422603"/>
<path d="M136.148 239.332C136.148 239.332 135.919 240.765 136.148 241.958C136.343 242.979 137.433 244.791 137.433 244.791C137.513 244.963 137.777 244.906 137.777 244.722C137.777 243.598 137.593 241.407 136.492 239.251C136.412 239.102 136.148 239.16 136.148 239.332Z" fill="#808285"/>
<path d="M136.171 246.121C136.091 245.961 135.873 245.938 135.758 246.052L135.747 242.314L136.148 242.336L136.171 246.121Z" fill="#808285"/>
<path d="M136.538 247.039C135.861 247.36 135.414 247.039 135.414 247.039L135.712 246.144C135.724 246.11 135.747 246.075 135.77 246.052C135.884 245.938 136.102 245.949 136.182 246.121L136.194 246.133L136.538 247.039Z" fill="#6D6E71"/>
<path d="M136.217 241.568L135.506 241.947C135.334 242.038 135.391 242.302 135.597 242.314L136.389 242.359C136.389 242.359 136.572 242.05 136.217 241.568Z" fill="#6D6E71"/>
<path d="M230.209 227.897L236.587 239.022C237 239.745 236.461 240.616 235.601 240.616H230.863C229.923 240.616 229.051 240.112 228.626 239.309L221.537 226.097C221.262 225.592 221.652 224.984 222.249 224.984H225.105C227.215 224.996 229.177 226.108 230.209 227.897Z" fill="#939598"/>
<path d="M231.414 220.454C231.678 220.259 231.345 219.043 230.221 219.594C229.097 220.144 229.154 222.392 229.43 222.862C229.923 223.745 239.249 240.616 239.719 241.465C240.82 243.46 246.131 247.784 247.657 252.016C247.657 252.016 252.716 255.067 252.922 257.521L256.088 257.716C256.088 257.716 255.618 253.656 255.377 252.314C255.216 251.408 254.321 249.734 252.245 248.541C250.18 247.348 246.934 244.366 242.002 242.061C241.004 241.591 233.215 227.083 231.219 223.321C230.84 222.598 230.749 221.761 231.047 221.004C231.15 220.775 231.265 220.568 231.414 220.454Z" fill="#E6E7E8"/>
<path d="M226.481 188.146L223.017 212.38C222.753 214.226 220.975 215.522 219.037 215.27L178.82 210.006C176.893 209.753 175.539 208.044 175.803 206.198L179.267 181.964C179.531 180.118 181.309 178.822 183.248 179.074L223.465 184.338C225.392 184.591 226.745 186.299 226.481 188.146Z" fill="#314123"/>
<path d="M183.649 179.131L183.11 182.87L179.198 182.354L179.256 181.964C179.52 180.118 181.298 178.822 183.236 179.074L183.649 179.131Z" fill="#E0FA78"/>
<path d="M226.481 188.146L226.424 188.536L222.512 188.02L223.052 184.281L223.465 184.338C225.392 184.59 226.745 186.299 226.481 188.146Z" fill="#E0FA78"/>
<path d="M179.772 206.313L179.233 210.051L178.82 209.994C176.893 209.742 175.539 208.033 175.803 206.186L175.86 205.796L179.772 206.313Z" fill="#E0FA78"/>
<path d="M223.074 211.99L223.017 212.38C222.753 214.226 220.975 215.522 219.037 215.27L218.624 215.212L219.163 211.474L223.074 211.99Z" fill="#E0FA78"/>
<path d="M187.274 211.118L185.817 210.923L190.233 179.992L191.702 180.175L187.274 211.118Z" fill="#0F214F"/>
<path d="M212.051 214.352L210.594 214.169L215.011 183.237L216.479 183.421L212.051 214.352Z" fill="#0F214F"/>
<path d="M207.233 195.876L199.559 194.867L200.121 190.956L207.795 191.954L207.233 195.876Z" fill="#ED545C"/>
<path d="M194.168 202.092L192.573 201.886L192.654 201.312L194.248 201.519L194.168 202.092Z" fill="#FFD0A1"/>
<path d="M207.153 207.207L203.436 206.725L203.826 203.973L207.554 204.455L207.153 207.207Z" fill="#ED7D89"/>
<path d="M205.994 200.165L202.771 199.741L203.138 197.172L206.361 197.596L205.994 200.165Z" fill="#FFD0A1"/>
<path d="M220.838 202.562L219.725 202.413L220.138 199.569L221.239 199.718L220.838 202.562Z" fill="#FF9933"/>
<path d="M185.381 193.789L182.674 193.433L183.087 190.554L185.794 190.898L185.381 193.789Z" fill="#ED545C"/>
<path d="M201.98 187.366L195.2 186.471L195.613 183.581L202.393 184.464L201.98 187.366Z" fill="#FF9933"/>
<path d="M194.604 195.543C195.605 195.543 196.416 194.768 196.416 193.811C196.416 192.855 195.605 192.08 194.604 192.08C193.603 192.08 192.791 192.855 192.791 193.811C192.791 194.768 193.603 195.543 194.604 195.543Z" fill="#ED545C"/>
<path d="M199.146 201.977C199.112 202.218 198.745 202.367 198.32 202.31C197.896 202.253 197.586 202.012 197.621 201.771C197.655 201.53 198.022 201.381 198.446 201.438C198.871 201.507 199.181 201.737 199.146 201.977Z" fill="#FFD0A1"/>
<path d="M218.314 195.738C218.268 196.048 217.913 196.266 217.523 196.208C217.133 196.151 216.846 195.864 216.892 195.543C216.938 195.234 217.293 195.016 217.683 195.073C218.073 195.13 218.36 195.429 218.314 195.738Z" fill="#FFD0A1"/>
<path d="M183.901 200.727C183.81 201.392 183.225 201.863 182.617 201.782C181.997 201.702 181.573 201.094 181.676 200.441C181.768 199.775 182.353 199.305 182.961 199.385C183.58 199.454 183.993 200.062 183.901 200.727Z" fill="#ED545C"/>
<path d="M196.634 208.744C196.485 209.822 195.441 210.579 194.317 210.43C193.193 210.281 192.401 209.283 192.551 208.205C192.7 207.127 193.743 206.37 194.868 206.519C196.003 206.668 196.783 207.666 196.634 208.744Z" fill="#ED7D89"/>
<path d="M217.591 206.519C217.534 206.92 217.144 207.207 216.72 207.15C216.295 207.092 216.008 206.725 216.066 206.324C216.123 205.923 216.513 205.636 216.938 205.693C217.362 205.739 217.649 206.106 217.591 206.519Z" fill="#ED7D89"/>
<path d="M209.046 182.457L198.596 181.092C198.538 181.081 198.504 181.035 198.515 180.989L198.676 179.854C198.687 179.808 198.733 179.774 198.779 179.774L209.229 181.138C209.287 181.15 209.321 181.196 209.309 181.242L209.149 182.377C209.149 182.423 209.103 182.457 209.046 182.457Z" fill="#E5FF7A"/>
<path d="M207.669 189.488L206.063 211.118C205.983 212.242 204.962 213.079 203.781 212.999L196.588 212.506C195.418 212.426 194.535 211.462 194.615 210.338L196.221 188.708C196.302 187.595 197.311 186.747 198.492 186.827L205.685 187.32C206.855 187.4 207.749 188.375 207.669 189.488Z" fill="#FFD0A1"/>
<path d="M197.586 212.586L197.299 212.563L199.318 186.884L199.605 186.907L197.586 212.586Z" fill="#0F214F"/>
<path d="M207.669 189.488L205.536 189.339L205.685 187.309C206.855 187.4 207.749 188.375 207.669 189.488Z" fill="#868586"/>
<path d="M198.492 186.827L198.343 188.857L196.221 188.708C196.301 187.595 197.311 186.747 198.492 186.827Z" fill="#868586"/>
<path d="M206.052 211.118C205.971 212.242 204.95 213.079 203.769 212.999L203.918 210.969L206.052 211.118Z" fill="#868586"/>
<path d="M196.737 210.487L196.588 212.517C195.418 212.437 194.535 211.474 194.615 210.35L196.737 210.487Z" fill="#868586"/>
<path d="M203.953 186.575L200.603 186.345C200.592 186.345 200.569 186.357 200.569 186.368L200.523 186.93C200.523 186.942 200.534 186.953 200.546 186.965L203.895 187.194C203.907 187.194 203.93 187.182 203.93 187.171L203.976 186.609C203.976 186.598 203.964 186.575 203.953 186.575Z" fill="#0F214F"/>
<path d="M223.774 197.768L220.058 214.157C219.771 215.281 218.589 215.981 217.408 215.729L207.818 213.733C206.637 213.492 205.868 212.391 206.086 211.244L209.803 194.855C210.066 193.697 211.259 192.963 212.464 193.215L222.054 195.211C223.269 195.475 224.038 196.621 223.774 197.768Z" fill="#742421"/>
<path d="M212.475 193.227L212.005 195.325L209.814 194.867C210.078 193.708 211.271 192.974 212.475 193.227Z" fill="#FAFF69"/>
<path d="M223.774 197.768L221.583 197.31L222.054 195.211C223.27 195.474 224.038 196.621 223.774 197.768Z" fill="#FAFF69"/>
<path d="M208.288 211.714L207.83 213.744C206.648 213.504 205.88 212.403 206.098 211.256L208.288 211.714Z" fill="#FAFF69"/>
<path d="M220.058 214.157C219.771 215.281 218.589 215.981 217.408 215.729L217.867 213.699L220.058 214.157Z" fill="#FAFF69"/>
<path d="M210.64 214.329L210.365 214.272L215.022 193.754L215.297 193.811L210.64 214.329Z" fill="#0F214F"/>
<path d="M219.129 194.614L216.318 194.029C216.295 194.029 216.284 194.006 216.284 193.984L216.398 193.479C216.398 193.456 216.421 193.444 216.444 193.444L219.255 194.029C219.278 194.029 219.289 194.052 219.289 194.075L219.174 194.58C219.174 194.603 219.151 194.614 219.129 194.614Z" fill="#FAFF69"/>
<path d="M192.907 196.816L193.664 209.444C193.722 210.396 192.964 211.21 191.966 211.267L147.964 213.687C147.138 213.733 146.416 213.228 146.163 212.517C146.106 212.38 146.071 212.219 146.071 212.07L145.314 199.443C145.257 198.491 146.014 197.677 147.012 197.619L191.014 195.199C192.001 195.142 192.85 195.876 192.907 196.816Z" fill="#314123"/>
<g opacity="0.5">
<path opacity="0.5" d="M193.514 206.852L193.571 207.838L145.967 210.453L145.91 209.467L193.514 206.852Z" fill="white"/>
<path opacity="0.5" d="M193.48 206.404L193.502 206.657L145.898 209.272L145.887 209.019L193.48 206.404Z" fill="white"/>
<path opacity="0.5" d="M193.675 209.49C193.675 209.581 193.675 209.662 193.652 209.742L146.105 212.357C146.093 212.265 146.07 212.196 146.07 212.104L193.675 209.49Z" fill="white"/>
<path opacity="0.5" d="M193.594 208.297L193.663 209.295L146.059 211.909L146.002 210.912L193.594 208.297Z" fill="white"/>
</g>
<g opacity="0.5">
<path opacity="0.5" d="M193.067 199.385L193.124 200.372L145.52 202.987L145.462 202L193.067 199.385Z" fill="white"/>
<path opacity="0.5" d="M193.032 198.927L193.055 199.19L145.451 201.805L145.44 201.553L193.032 198.927Z" fill="white"/>
</g>
<g opacity="0.5">
<path opacity="0.5" d="M192.906 196.77L145.302 199.385C145.302 199.294 145.302 199.213 145.325 199.133L192.86 196.518C192.883 196.598 192.906 196.679 192.906 196.77Z" fill="white"/>
<path opacity="0.5" d="M192.803 196.323L145.371 198.938C145.44 198.617 145.623 198.33 145.864 198.124C145.956 198.021 146.048 197.952 146.151 197.894L191.886 195.371C192.012 195.417 192.138 195.497 192.241 195.601C192.321 195.647 192.413 195.727 192.459 195.807C192.597 195.933 192.688 196.082 192.746 196.231C192.769 196.254 192.78 196.289 192.803 196.323Z" fill="white"/>
</g>
<g opacity="0.5">
<path opacity="0.5" d="M147.366 197.608L148.33 213.676L147.974 213.699C147.734 213.71 147.504 213.676 147.286 213.607L146.334 197.791C146.541 197.699 146.77 197.642 147.011 197.631L147.366 197.608Z" fill="white"/>
<path opacity="0.5" d="M147.825 197.585L148.789 213.653L148.525 213.664L147.562 197.596L147.825 197.585Z" fill="white"/>
<path opacity="0.5" d="M145.864 198.124L146.782 213.343C146.495 213.137 146.277 212.85 146.162 212.529C146.151 212.471 146.116 212.426 146.105 212.368C146.093 212.276 146.07 212.208 146.07 212.116L145.302 199.397C145.302 199.305 145.302 199.225 145.325 199.145C145.336 199.064 145.336 198.995 145.371 198.938C145.44 198.606 145.623 198.319 145.864 198.124Z" fill="white"/>
</g>
<g opacity="0.5">
<path opacity="0.5" d="M157.541 197.046L158.574 196.988L159.537 213.056L158.505 213.114L157.541 197.046Z" fill="white"/>
<path opacity="0.5" d="M158.78 196.977L159.044 196.965L160.008 213.033L159.744 213.045L158.78 196.977Z" fill="white"/>
<path opacity="0.5" d="M155.557 197.16L155.821 197.137L156.784 213.217L156.52 213.228L155.557 197.16Z" fill="white"/>
<path opacity="0.5" d="M156.027 197.126L157.06 197.069L158.035 213.148L156.991 213.205L156.027 197.126Z" fill="white"/>
</g>
<path opacity="0.5" d="M151.645 197.367H151.726L152.689 213.435L152.609 213.446L151.645 197.367Z" fill="white"/>
<path opacity="0.5" d="M162.864 196.759L162.944 196.747L163.908 212.815L163.827 212.827L162.864 196.759Z" fill="white"/>
<g opacity="0.5">
<path opacity="0.5" d="M168.76 196.426L169.781 196.369L170.744 212.437L169.723 212.494L168.76 196.426Z" fill="white"/>
<path opacity="0.5" d="M169.987 196.358L170.251 196.346L171.226 212.414L170.962 212.426L169.987 196.358Z" fill="white"/>
<path opacity="0.5" d="M166.764 196.541L167.028 196.53L167.991 212.598L167.727 212.609L166.764 196.541Z" fill="white"/>
<path opacity="0.5" d="M167.234 196.518L168.278 196.461L169.242 212.529L168.198 212.586L167.234 196.518Z" fill="white"/>
</g>
<path opacity="0.5" d="M174.082 196.14L174.163 196.128L175.126 212.196L175.046 212.208L174.082 196.14Z" fill="white"/>
<g opacity="0.5">
<path opacity="0.5" d="M179.967 195.807L181.011 195.75L181.974 211.829L180.93 211.886L179.967 195.807Z" fill="white"/>
<path opacity="0.5" d="M181.206 195.738L181.47 195.727L182.433 211.795L182.169 211.818L181.206 195.738Z" fill="white"/>
<path opacity="0.5" d="M177.994 195.922L178.258 195.91L179.221 211.978L178.957 211.99L177.994 195.922Z" fill="white"/>
<path opacity="0.5" d="M178.464 195.899L179.485 195.842L180.449 211.909L179.428 211.967L178.464 195.899Z" fill="white"/>
</g>
<path opacity="0.5" d="M185.289 195.52L185.37 195.509L186.345 211.588H186.264L185.289 195.52Z" fill="white"/>
<g opacity="0.5">
<path opacity="0.5" d="M191.885 195.383C192.011 195.429 192.138 195.509 192.241 195.612L193.147 210.751C192.883 211.015 192.539 211.21 192.138 211.256L191.174 195.211C191.438 195.211 191.667 195.268 191.885 195.383Z" fill="white"/>
<path opacity="0.5" d="M192.47 195.807C192.608 195.933 192.7 196.082 192.757 196.231L193.583 210.051C193.537 210.212 193.468 210.373 193.342 210.51L192.47 195.807Z" fill="white"/>
<path opacity="0.5" d="M189.201 195.302L189.465 195.291L190.428 211.359L190.165 211.37L189.201 195.302Z" fill="white"/>
<path opacity="0.5" d="M189.671 195.28L190.704 195.222L191.679 211.29L190.635 211.347L189.671 195.28Z" fill="white"/>
</g>
<path d="M148.445 197.539L148.628 200.647L145.394 200.83L145.313 199.443C145.256 198.491 146.013 197.677 147.011 197.619L148.445 197.539Z" fill="#BE7F30"/>
<path d="M192.906 196.816L192.986 198.204L189.752 198.388L189.568 195.279L191.013 195.199C192 195.142 192.849 195.876 192.906 196.816Z" fill="#BE7F30"/>
<path d="M149.294 210.51L149.477 213.607L147.963 213.687C147.137 213.733 146.415 213.228 146.162 212.517L146.047 210.682L149.294 210.51Z" fill="#BE7F30"/>
<path d="M193.583 208.067L193.663 209.444C193.721 210.396 192.963 211.21 191.965 211.267L190.589 211.347L190.405 208.251L193.583 208.067Z" fill="#BE7F30"/>
<path d="M153.699 206.45L153.561 204.179C153.561 204.134 153.595 204.099 153.63 204.099L157.312 203.893C157.358 203.893 157.392 203.927 157.392 203.962L157.53 206.232C157.53 206.278 157.495 206.313 157.461 206.313L153.779 206.519C153.733 206.519 153.699 206.496 153.699 206.45Z" fill="#D9F0F8"/>
<path d="M154.134 205.739L154.089 204.845L157.438 204.661L157.484 205.556L154.134 205.739Z" fill="#0F214F"/>
<path d="M154.18 205.682L154.134 204.902L157.438 204.718L157.484 205.498L154.18 205.682Z" fill="#CED9DF"/>
<path d="M154.811 205.315V205.189L155.224 205.166L155.236 205.292L154.811 205.315Z" fill="#0F214F"/>
<path d="M185.588 204.695L185.45 202.425C185.45 202.379 185.416 202.356 185.37 202.356L181.688 202.562C181.642 202.562 181.607 202.597 181.619 202.643L181.756 204.913C181.756 204.959 181.791 204.982 181.837 204.982L185.519 204.776C185.565 204.776 185.588 204.741 185.588 204.695Z" fill="#D9F0F8"/>
<path d="M185.06 204.03L185.014 203.147L181.665 203.331L181.711 204.214L185.06 204.03Z" fill="#0F214F"/>
<path d="M185.014 203.984L184.968 203.204L181.665 203.388L181.711 204.156L185.014 203.984Z" fill="#CED9DF"/>
<path d="M184.337 203.698V203.56L183.913 203.583L183.924 203.721L184.337 203.698Z" fill="#0F214F"/>
<path d="M174.22 205.762L164.768 206.278L164.711 205.315L174.163 204.799L174.22 205.762Z" fill="#9D7028"/>
<path d="M177.26 205.877L174.312 205.762L174.254 204.799L177.179 204.397L177.26 205.877Z" fill="#462A0F"/>
<path d="M161.763 206.725L164.676 206.29L164.619 205.326L161.682 205.246L161.763 206.725Z" fill="#462A0F"/>
<path d="M174.312 205.762H174.231L174.163 204.799L174.254 204.787L174.312 205.762Z" fill="#7A571F"/>
<path d="M164.768 206.29H164.676L164.619 205.326L164.711 205.315L164.768 206.29Z" fill="#7A571F"/>
<path d="M193.147 200.888L145.554 203.514L145.531 203.239L193.135 200.613L193.147 200.888Z" fill="#0F214F"/>
<path d="M188.478 185.554L188.983 194.614C189.006 194.958 188.719 195.257 188.364 195.279L153.802 197.034C153.435 197.057 153.136 196.782 153.113 196.438L152.609 187.377C152.586 187.033 152.861 186.735 153.228 186.712L187.79 184.958C188.157 184.935 188.467 185.198 188.478 185.554Z" fill="#462A0F"/>
<path d="M154.696 186.632L154.719 187.045C154.754 187.756 154.031 188.375 153.091 188.421C152.941 188.433 152.804 188.421 152.666 188.398L152.609 187.377C152.586 187.033 152.861 186.735 153.228 186.712L154.696 186.632Z" fill="#704318"/>
<path d="M188.478 185.554L188.536 186.575C188.432 186.598 188.318 186.609 188.203 186.62C187.262 186.666 186.459 186.127 186.425 185.416L186.402 185.026L187.779 184.958C188.157 184.935 188.467 185.198 188.478 185.554Z" fill="#704318"/>
<path d="M188.685 189.109L152.804 190.933L152.781 190.531L188.662 188.719L188.685 189.109Z" fill="#0F214F"/>
<path d="M168.622 190.382L166.592 190.485C166.328 190.497 166.121 190.715 166.133 190.979C166.144 191.231 166.374 191.437 166.649 191.414L168.679 191.311C168.943 191.3 169.15 191.082 169.138 190.818C169.115 190.566 168.886 190.371 168.622 190.382Z" fill="#0F214F"/>
<path d="M174.587 190.084L172.557 190.187C172.293 190.199 172.086 190.417 172.098 190.68C172.109 190.933 172.339 191.139 172.614 191.116L174.644 191.013C174.908 191.002 175.115 190.784 175.103 190.52C175.092 190.268 174.862 190.061 174.587 190.084Z" fill="#0F214F"/>
<path d="M172.511 192.619L168.898 192.802C167.968 192.848 167.315 192.366 167.269 191.586L167.234 190.898L168.072 190.853L168.106 191.541C168.129 191.965 168.588 192.011 168.852 191.999L172.465 191.816C172.729 191.804 173.188 191.713 173.165 191.288L173.13 190.6L173.968 190.554L174.002 191.242C174.036 192.022 173.451 192.573 172.511 192.619Z" fill="#0F214F"/>
<path d="M181.24 188.284L179.967 188.352C179.841 188.364 179.737 188.467 179.749 188.582L179.864 190.657C179.875 190.784 179.978 190.875 180.105 190.864L181.378 190.795C181.504 190.784 181.607 190.68 181.596 190.566L181.481 188.49C181.481 188.364 181.366 188.272 181.24 188.284Z" fill="#D9F0F8"/>
<path d="M181.045 190.497L180.414 190.531L180.288 188.329L180.919 188.295L181.045 190.497Z" fill="#0F214F"/>
<path d="M180.999 190.474L180.449 190.497L180.323 188.329L180.885 188.295L180.999 190.474Z" fill="#CED9DF"/>
<path d="M180.747 190.05L180.655 190.061L180.644 189.786L180.735 189.774L180.747 190.05Z" fill="#0F214F"/>
<path d="M160.661 189.327L159.388 189.396C159.262 189.407 159.159 189.511 159.17 189.625L159.285 191.701C159.296 191.827 159.399 191.919 159.526 191.908L160.799 191.839C160.925 191.827 161.028 191.724 161.017 191.609L160.902 189.534C160.902 189.419 160.787 189.316 160.661 189.327Z" fill="#D9F0F8"/>
<path d="M160.466 191.552L159.835 191.575L159.709 189.373L160.34 189.339L160.466 191.552Z" fill="#0F214F"/>
<path d="M160.42 191.518L159.87 191.541L159.744 189.373L160.306 189.35L160.42 191.518Z" fill="#CED9DF"/>
<path d="M160.168 191.105H160.076L160.065 190.83L160.157 190.818L160.168 191.105Z" fill="#0F214F"/>
<path d="M164.768 196.472L163.242 196.553L162.669 186.23L164.194 186.15L164.768 196.472Z" fill="#0F214F"/>
<path d="M178.338 195.784L176.812 195.853L176.239 185.542L177.764 185.462L178.338 195.784Z" fill="#0F214F"/>
</svg>
