<svg width="350" height="209" viewBox="0 0 350 209" fill="none" xmlns="http://www.w3.org/2000/svg">
<path d="M15.5842 163.193C15.5842 163.193 -26.3459 189.377 27.3489 191.763C81.0437 194.15 48.1078 217.156 124.391 204.855C200.675 192.554 273.247 216.897 273.286 191.368C273.286 191.368 320.937 207.269 323.746 187.399C323.746 187.399 360.715 196.455 346.915 181.017C333.114 165.58 72.3458 118.844 46.7805 135.659C21.2153 152.474 6.02303 153.02 15.5842 163.193Z" fill="#8CB7EA"/>
<path d="M8.13639 175.535C8.14928 175.603 8.16216 175.658 8.17505 175.726L13.5484 175.712L96.9447 175.439L151.98 175.262H153.655L157.533 175.248L207.878 175.085L323.875 174.703L328.14 174.689L331.091 174.676H332.792H333.539C333.539 174.676 333.655 174.485 333.862 174.103C333.874 174.062 333.9 174.035 333.926 173.994C334.003 173.857 334.081 173.694 334.184 173.517C334.725 172.466 335.575 170.748 336.593 168.471C336.851 167.884 337.122 167.243 337.405 166.589C337.624 166.057 337.856 165.511 338.075 164.925C338.152 164.734 338.23 164.543 338.307 164.339C338.384 164.134 338.462 163.929 338.552 163.725C338.977 162.634 339.402 161.461 339.828 160.234C340.253 159.02 340.678 157.752 341.09 156.429C341.103 156.402 341.103 156.374 341.116 156.347C341.348 155.597 341.567 154.833 341.799 154.056C342.121 152.91 342.443 151.738 342.753 150.524C343.049 149.365 343.32 148.178 343.59 146.965C344.054 144.81 344.466 142.573 344.814 140.255C345.497 135.605 345.897 130.654 345.819 125.54C345.755 120.794 345.278 115.899 344.273 110.935C341.748 98.5382 335.846 85.7736 324.391 74.1C282.28 31.1559 246.071 54.9531 227.696 53.7531C224.397 53.5349 221.511 52.1575 218.663 49.9619C213.457 45.9388 208.419 39.202 201.383 31.9742C190.843 21.1324 175.831 9.18609 149.067 3.59477C115.951 -3.31938 70.4646 -1.38287 50.7881 19.3869C38.8817 31.9469 36.4205 51.4074 51.8576 79.9641C52.7983 81.696 53.8034 83.4689 54.8729 85.269C55.7749 86.7828 56.5609 88.2283 57.231 89.6194C58.9319 93.0832 59.937 96.1516 60.3622 98.8791C61.3802 105.425 59.035 110.075 54.8471 113.88C53.6359 114.985 52.2829 116.008 50.801 117.003C45.9044 120.276 39.7064 123.099 33.5341 126.386C30.1323 128.213 26.7305 130.177 23.5477 132.454C20.5969 134.568 17.8393 136.955 15.4555 139.723C13.8963 141.537 12.5046 143.514 11.3063 145.696C11.2418 145.819 11.1774 145.942 11.113 146.064C9.57959 148.969 8.40699 152.229 7.71116 155.924C7.67251 156.115 7.64674 156.306 7.60808 156.497C6.68031 161.843 6.74473 168.116 8.13639 175.535Z" fill="#FFEDC5"/>
<path d="M51.8446 79.9642L237.837 113.43L251.187 96.4927L50.7751 19.3869C38.8687 31.9469 36.4075 51.4075 51.8446 79.9642Z" fill="#F9EFDC"/>
<path d="M8.17503 175.726L96.9576 175.439L151.993 175.262H153.668L157.546 175.248C192.93 154.465 203.716 132.673 203.716 132.673C202.453 132.332 111.892 112.585 50.801 116.99C45.9044 120.263 39.7064 123.085 33.5341 126.372C30.1323 128.199 26.7305 130.163 23.5477 132.441C12.2211 140.555 3.781 152.583 8.17503 175.726Z" fill="#E1EFFF"/>
<path d="M8.17501 175.726L333.565 174.662C333.565 174.662 351.012 144.101 344.26 110.907C340.253 113.785 335.704 115.871 332.818 113.498C329.171 110.498 318.747 101.743 310.848 95.1016C305.41 90.5331 301.183 86.9601 301.183 86.9601C301.183 86.9601 296.751 82.4461 293.838 83.7008C292.498 84.2872 291.184 85.6782 290.037 86.9601C290.024 86.9738 290.024 86.9737 290.024 86.9737C288.697 88.4602 287.563 89.7694 286.842 89.483C286.184 89.2239 281.314 83.9463 275.644 78.0958C269.626 71.8635 262.707 64.9766 259.008 62.7401C259.008 62.7401 255.568 59.0171 251.844 63.2856C249.937 65.4676 246.986 71.0589 243.7 77.7822C236.123 93.2879 226.704 114.808 223.843 114.521C219.746 114.112 213.367 104.471 209.501 103.502C205.636 102.534 188.008 136.259 180.496 137.705C172.983 139.15 158.642 126.863 147.031 130.477C135.421 134.091 116.634 154.329 99.2126 150.715C85.2703 147.824 53.7518 131.513 33.547 126.345C17.981 134.691 2.54395 146.092 8.17501 175.726Z" fill="#D9E9FC"/>
<path d="M7.71117 155.911L8.3168 155.693C8.9482 155.488 9.97906 155.256 10.9584 155.406C11.9763 155.57 13.6901 156.893 14.7339 157.779C14.2442 156.906 13.8061 155.815 13.6901 154.629C13.4195 151.738 14.4891 148.478 16.19 150.633C17.427 152.188 16.8729 156.306 16.4735 158.461C17.1306 158.734 17.8007 159.034 18.4579 159.361C19.2697 156.32 20.4423 152.692 22.053 149.16C22.8132 147.469 38.0699 150.497 44.5385 154.52C54.8471 160.916 86.8939 154.479 96.919 156.156C106.931 157.847 126.157 165.716 144.828 160.425C163.499 155.133 224.977 151.751 242.953 148.383C258.776 145.41 315.809 127.968 345.794 125.554C345.871 130.682 345.471 135.618 344.789 140.269C341.851 160.166 333.552 174.703 333.552 174.703L96.9447 175.467L54.6796 175.044L7.956 174.58C6.6932 167.298 6.71897 161.161 7.71117 155.911Z" fill="#8CB7EA"/>
<path d="M8.02043 174.867L54.6925 175.017L96.9576 175.439L151.993 175.262H153.668L157.546 175.249L207.891 175.085L333.565 174.676C333.565 174.676 341.864 160.152 344.802 140.241C320.924 142.423 273.608 147.169 217.04 154.724C135.757 165.566 93.3883 172.726 49.2161 158.243C41.0723 155.57 34.0109 153.17 27.8258 151.069C25.8156 150.388 23.8956 149.747 22.0659 149.133C20.249 148.533 18.5352 147.96 16.8729 147.428C15.0045 146.828 13.0459 146.119 11.3578 145.601C11.2419 145.805 11.2032 145.887 11.113 146.051C9.57961 148.956 8.407 152.215 7.71118 155.911C6.71898 161.161 6.75763 167.612 8.02043 174.867Z" fill="#B4D5EF"/>
<path d="M8.02039 174.867L96.9576 175.439L151.992 175.262H153.668L157.546 175.248L207.891 175.085L333.63 174.553C333.63 174.553 333.797 174.267 334.197 173.503C334.738 172.453 335.588 170.735 336.606 168.457C323.205 163.507 297.421 147.115 274.497 154.888C240.337 166.466 105.011 174.621 80.7603 169.916C56.5093 165.211 34.4748 159.402 25.6867 168.034C23.29 170.366 9.88881 163.998 8.02039 174.867Z" fill="#AFD295"/>
<path d="M333.939 173.98C334.016 173.844 334.093 173.68 334.196 173.503C334.738 172.453 335.588 170.735 336.606 168.457C336.864 167.871 337.134 167.23 337.418 166.575C337.637 166.043 337.869 165.498 338.088 164.911C338.165 164.72 338.243 164.53 338.32 164.325C338.397 164.12 338.474 163.916 338.565 163.711C332.779 149.365 319.764 120.781 307.6 124.34C295.604 127.859 320.576 158.665 333.939 173.98Z" fill="#82B378"/>
<path d="M341.799 154.042C342.121 152.897 342.443 151.724 342.752 150.51C343.049 149.351 343.319 148.165 343.577 146.951C341.18 134.091 337.276 118.394 332.56 118.981C326.968 119.649 335.962 141.264 341.799 154.042Z" fill="#82B378"/>
<path d="M296.351 161.898C300.397 164.175 312.085 169.903 322.032 174.703L327.29 174.689L330.936 174.676C322.458 166.316 307.613 154.111 294.599 154.247C293.362 154.261 292.266 155.202 292.073 156.497C291.854 157.875 292.589 159.77 296.351 161.898Z" fill="#82B378"/>
<path d="M243.687 77.7958C245.491 78.4095 247.991 78.7368 248.313 76.1729C248.764 72.4363 258.905 79.6641 264.137 81.2324C269.368 82.8007 266.418 76.4184 266.534 74.6046C266.598 73.5 271.688 75.9956 275.644 78.1094C269.626 71.8771 262.707 64.9903 259.008 62.7537C259.008 62.7537 255.568 59.0307 251.844 63.2992C249.911 65.4948 246.973 71.0862 243.687 77.7958Z" fill="#F8FBFF"/>
<path d="M290.024 86.9874C290.14 86.8783 291.12 86.0328 292.898 87.001C294.792 88.0375 297.305 88.5966 298.439 88.2284C299.573 87.8602 310.848 95.1152 310.848 95.1152C305.41 90.5467 301.183 86.9737 301.183 86.9737C301.183 86.9737 296.751 82.4598 293.838 83.7144C292.485 84.3145 291.171 85.7055 290.024 86.9874Z" fill="#F8FBFF"/>
<path d="M121.711 16.1003L218.65 49.9483C213.444 45.9252 208.406 39.1884 201.371 31.9606L121.711 16.1003Z" fill="#F8FBFF"/>
<path d="M124.701 27.392C127.059 27.392 128.966 29.4104 128.966 31.906C128.966 34.4016 127.059 36.42 124.701 36.42C122.343 36.42 120.435 34.4016 120.435 31.906C120.435 29.4104 122.343 27.392 124.701 27.392Z" fill="#F8FBFF"/>
<path d="M218.354 37.0063C218.354 37.0063 212.311 33.6379 203.664 32.9697C199.025 32.6151 194.734 35.6426 193.278 40.3202C193.188 40.593 193.111 40.8657 193.033 41.1657C190.998 48.8981 192.106 72.3271 198.948 78.4367C205.79 84.5462 218.354 81.9688 218.354 81.9688V37.0063Z" fill="#233862"/>
<path d="M207.749 26.5874L222.452 29.2194L221.33 34.5789L207.852 37.9473L207.749 26.5874Z" fill="#82B378"/>
<path d="M260.838 60.299C260.181 59.7944 259.575 61.6082 258.751 61.54C258.557 61.5264 259.575 60.4626 259.82 60.0944C260.065 59.7262 260.013 59.5217 259.833 59.4126C259.653 59.3035 257.307 60.6536 256.831 61.2127C256.534 61.5536 255.903 62.7946 255.452 63.7083C255.452 63.6947 255.452 63.6947 255.452 63.6947C255.452 63.6947 242.115 64.7448 239.422 64.4993C237.463 64.3357 236.51 49.73 236.355 49.7573C233.817 50.2073 228.869 51.2983 225.815 53.4939C225.699 53.603 225.583 53.644 225.441 53.6849C226.601 58.1988 228.34 63.5174 230.866 68.4541C232.515 71.6862 235.788 73.5818 239.255 73.309C243.906 72.9272 250.749 71.6589 256.586 67.7314C256.586 67.7314 259.601 66.1085 261.006 64.7993C262.926 62.9992 261.508 60.7899 260.838 60.299Z" fill="#FFD8BD"/>
<path d="M237.373 89.3193C237.373 89.3193 236.471 101.279 235.608 112.912C234.435 128.718 229.977 168.116 229.977 168.116C229.977 168.116 230.917 169.684 226.33 168.662C226.33 168.662 220.712 155.242 219.539 139.805C219.526 139.546 219.501 139.3 219.488 139.041C218.405 123.331 216.717 90.2467 216.717 90.2467L237.373 89.3193Z" fill="#F99F46"/>
<path opacity="0.4" d="M237.451 88.2421C237.451 88.2421 236.471 101.266 235.608 112.912L219.539 139.805C219.526 139.546 219.501 139.3 219.488 139.041C218.405 123.331 216.717 90.2468 216.717 90.2468L237.451 88.2421Z" fill="#C9833D"/>
<path d="M236.51 88.8966L199.051 164.352C199.051 164.352 195.559 166.002 195.108 164.57C195.108 164.57 198.433 130 204.257 122.24C207.543 117.862 211.409 104.702 211.589 100.107C211.769 95.5107 212.8 85.7873 212.8 85.7873L236.51 88.8966Z" fill="#F99F46"/>
<path d="M205.417 174.99C205.417 174.99 199.979 175.071 198.407 173.435C198.226 173.244 197.621 171.307 197.621 171.294C197.569 171.144 197.299 170.435 196.178 170.039C195.443 169.78 194.825 169.78 194.116 169.494C193.588 169.275 192.582 168.757 192.093 168.457C190.405 167.421 190.791 166.862 190.791 166.862C190.791 166.862 191.165 166.507 191.655 165.989C191.784 165.852 191.925 165.689 192.067 165.525C192.802 164.707 193.613 163.67 193.819 162.934C194 162.307 194.322 161.898 194.644 161.638C195.044 161.311 195.417 161.216 195.417 161.216C195.417 161.216 196.01 163.739 197.183 163.425C199.451 162.811 199.876 162.893 199.953 162.92L199.966 162.934C199.966 162.934 201.822 166.739 202.337 168.103C203.252 170.53 204.437 171.444 205.185 172.235C205.378 172.439 205.507 172.658 205.61 172.889C205.997 173.803 205.713 174.812 205.417 174.99Z" fill="#233862"/>
<path d="M205.417 174.989C205.417 174.989 199.979 175.071 198.407 173.435C198.226 173.244 197.621 171.307 197.621 171.294C197.569 171.144 197.299 170.435 196.178 170.039C195.443 169.78 194.825 169.78 194.116 169.494C193.588 169.275 192.582 168.757 192.093 168.457C190.405 167.421 190.791 166.862 190.791 166.862C190.791 166.862 191.165 166.507 191.655 165.989C191.784 165.852 191.925 165.689 192.067 165.525C192.247 166.262 192.737 167.557 194.039 168.103C195.894 168.866 197.891 170.175 198.471 171.226C199.051 172.276 199.438 173.23 200.572 173.626C201.706 174.021 204.656 174.13 204.863 174.021C205.03 173.939 205.185 173.162 205.61 172.876C205.997 173.803 205.713 174.812 205.417 174.989Z" fill="#FBB667"/>
<path d="M225.686 175.003H227.928C228.675 174.88 229.242 174.649 230.016 174.539C231.188 174.376 231.729 174.88 231.832 175.003C231.845 175.017 231.858 175.03 231.858 175.03H241.407C241.651 174.662 241.419 173.83 241.188 173.203C241.033 172.78 240.698 172.467 240.298 172.344C239.28 172.03 237.296 171.757 235.466 170.012C234.435 169.03 230.505 166.398 230.505 166.398H230.479C230.389 166.398 229.977 166.534 228.186 168.13C227.258 168.962 225.686 166.957 225.686 166.957C225.686 166.957 225.39 167.216 225.17 167.693C224.99 168.075 224.861 168.594 224.964 169.248C225.106 170.162 224.642 171.853 224.281 172.998C224.062 173.694 223.869 174.185 223.869 174.185C223.869 174.185 223.753 174.744 225.686 175.003Z" fill="#233862"/>
<path d="M225.686 175.03H227.928C228.675 174.908 229.242 174.635 230.015 174.539C231.188 174.376 231.729 174.88 231.832 175.003C231.845 175.017 231.858 175.03 231.858 175.03H241.406C241.651 174.662 241.419 173.83 241.187 173.203C240.891 172.93 240.814 174.389 240.659 174.621C240.504 174.853 232.863 174.703 232.425 174.362C231.987 174.021 230.66 173.435 228.817 173.898C227.219 174.308 224.848 173.257 224.268 172.985C224.049 173.68 223.856 174.171 223.856 174.171C223.856 174.171 223.753 174.785 225.686 175.03Z" fill="#FBB667"/>
<path d="M216.911 35.6563C216.911 35.6563 225.853 40.3203 231.033 38.5883C231.033 38.5883 229.758 36.87 227.541 35.5745C227.67 34.7835 227.773 34.0471 227.851 33.4061C228.134 31.0605 228.147 29.724 228.147 29.724L222.658 25.0464L221.434 23.9963C221.472 25.101 221.408 26.1374 221.266 27.0784C221.253 27.1466 221.24 27.2284 221.227 27.2966C220.338 32.9288 216.911 35.6563 216.911 35.6563Z" fill="#FBB667"/>
<path d="M211.795 85.2281C211.769 85.8282 212.942 86.4964 213.457 86.7419C215.725 87.8192 217.89 88.692 220.119 89.3194C221.678 89.7558 223.251 90.0694 224.913 90.2331C229.706 90.7513 235.363 89.6057 237.309 89.633C237.515 89.633 237.695 89.5512 237.85 89.4148C237.979 89.3057 238.082 83.1143 237.979 75.3001C237.979 75.0001 237.979 74.6728 237.953 74.3728V74.2637C237.927 71.2225 237.824 68.0178 237.695 64.8403C237.412 57.8306 236.897 51.0529 236.007 47.3026C234.977 42.8977 232.593 39.9929 230.415 37.8519L228.869 36.229C228.766 36.1336 228.637 36.079 228.495 36.1063C226.768 36.4472 224.874 36.4199 223.057 35.4653C221.008 34.4016 218.779 33.2424 218.418 33.5152C214.166 36.87 212.053 46.798 212.104 58.0761C212.104 58.4307 212.104 58.7853 212.117 59.1535C212.13 60.3126 212.182 61.4991 212.233 62.6856C212.697 71.0044 212.22 78.2185 211.95 82.4188C211.885 83.6053 211.821 84.5735 211.795 85.2281Z" fill="#FBB667"/>
<path d="M211.795 85.2281C211.769 85.8281 212.942 86.4964 213.457 86.7418C215.725 87.8192 217.89 88.692 220.119 89.3193C226.291 68.195 218.895 47.7253 218.895 47.7253L212.117 59.1535C212.13 60.3126 212.182 61.4991 212.233 62.6855C212.697 71.0043 212.22 78.2185 211.95 82.4188C211.885 83.6053 211.821 84.5735 211.795 85.2281Z" fill="#FBB667"/>
<path d="M221.305 51.012C219.088 49.621 214.643 47.0981 210.97 46.7026C210.171 46.6208 209.669 45.7207 209.991 44.9434C211.151 42.1341 214.437 36.2563 218.431 33.5289C218.805 33.2698 219.088 33.5016 219.475 33.7334C220.944 34.6062 224.127 37.1973 224.32 40.2521C224.487 42.9659 223.611 47.6708 223.083 50.2074C222.903 51.0256 222.001 51.4484 221.305 51.012Z" fill="#FBB667"/>
<path d="M221.176 27.2148C221.176 27.2148 221.189 27.242 221.215 27.2966C221.562 27.9512 223.921 32.1788 227.825 33.3925C228.108 31.0469 228.121 29.7104 228.121 29.7104L222.632 25.0328C221.91 25.9328 221.421 26.7511 221.24 27.0648C221.202 27.1739 221.176 27.2148 221.176 27.2148Z" fill="#FFD8BD"/>
<path d="M229.719 29.5876C229.719 29.5876 221.176 31.0877 220.377 25.4419C219.578 19.796 217.929 16.1957 223.354 14.9956C228.779 13.7955 230.144 15.7866 230.84 17.6004C231.536 19.4141 231.923 29.0558 229.719 29.5876Z" fill="#FBB667"/>
<path d="M232.167 14.3411C230.389 13.4819 221.756 9.14524 218.058 13.1001C217.993 12.5 218.006 11.7772 218.006 11.7772C217.735 12.2955 217.619 13.0455 217.568 13.591C217.233 13.1683 216.627 13.1001 216.627 13.1001C217.065 13.3183 217.246 13.741 217.323 14.0956C213.651 19.8642 219.23 25.7419 219.99 26.6556C220.776 27.5966 221.227 27.3239 221.227 27.3239C221.227 27.3239 222.619 25.3328 221.949 24.01C221.949 24.01 220.815 22.7962 221.472 22.0326C222.129 21.2689 222.503 22.428 223.019 22.4008C223.534 22.3599 224.462 20.7643 224.526 19.3051C224.591 17.8459 229.552 20.0688 231.549 19.3733C233.533 18.6778 235.286 15.8548 232.167 14.3411Z" fill="#2C3A64"/>
<path d="M211.937 64.2266L211.666 62.5083C215.622 61.8264 218.831 59.8081 221.189 56.5215C222.967 54.0394 224.217 50.7801 224.629 47.589C225.415 41.4112 223.882 37.8928 219.926 36.8291C216.395 35.8881 212.311 38.8065 212.259 38.8338L211.318 37.4018C211.512 37.2655 216.047 33.9925 220.325 35.138C223.65 36.0245 227.387 38.9565 226.253 47.8208C225.995 49.8664 225.158 53.8485 222.49 57.5715C219.874 61.24 216.318 63.4765 211.937 64.2266Z" fill="#233862"/>
<path d="M206.551 38.1383C209.447 38.1383 211.795 35.519 211.795 32.2879C211.795 29.0568 209.447 26.4374 206.551 26.4374C203.654 26.4374 201.306 29.0568 201.306 32.2879C201.306 35.519 203.654 38.1383 206.551 38.1383Z" fill="#AFD295"/>
<path d="M202.827 32.4378C202.827 29.6285 204.979 27.3511 207.633 27.3511C207.749 27.3511 207.865 27.3511 207.981 27.3647C207.582 27.2556 207.169 27.1874 206.731 27.1874C204.077 27.1874 201.925 29.4649 201.925 32.2742C201.925 34.9607 203.896 37.1564 206.383 37.3473C204.347 36.7745 202.827 34.7971 202.827 32.4378Z" fill="#82B378"/>
<path d="M259.975 57.5306H258.596V158.325H259.975V57.5306Z" fill="#C0783D"/>
<path d="M259.678 69.4225H258.88C258.39 69.4225 258.003 68.9997 258.003 68.4951V57.3806C258.003 56.8624 258.403 56.4533 258.88 56.4533H259.678C260.168 56.4533 260.555 56.8761 260.555 57.3806V68.4951C260.568 68.9997 260.168 69.4225 259.678 69.4225Z" fill="#233862"/>
<path d="M260.632 158.952H257.913C257.539 158.952 257.23 158.625 257.23 158.229C257.23 157.834 257.539 157.506 257.913 157.506H260.632C261.006 157.506 261.315 157.834 261.315 158.229C261.328 158.625 261.019 158.952 260.632 158.952Z" fill="#233862"/>
<path d="M259.292 161.748C259.047 161.748 258.841 161.557 258.815 161.298L258.596 158.952H259.975L259.769 161.298C259.73 161.557 259.537 161.748 259.292 161.748Z" fill="#C0783D"/>
<path d="M236.01 72.0168L234.922 71.1207L176.436 150.667L177.524 151.563L236.01 72.0168Z" fill="#C0783D"/>
<path d="M228.894 81.2188L228.263 80.7006C227.877 80.3869 227.812 79.8005 228.108 79.3914L234.551 70.6225C234.848 70.2134 235.402 70.1452 235.788 70.4589L236.42 70.9771C236.806 71.2907 236.871 71.8772 236.574 72.2863L230.132 81.0551C229.835 81.4643 229.281 81.5324 228.894 81.2188Z" fill="#233862"/>
<path d="M177.699 152.501L175.56 150.742C175.264 150.497 175.212 150.047 175.444 149.719C175.676 149.406 176.102 149.351 176.411 149.597L178.55 151.356C178.846 151.601 178.898 152.051 178.666 152.379C178.434 152.692 177.996 152.747 177.699 152.501Z" fill="#233862"/>
<path d="M175.006 153.838C174.813 153.674 174.762 153.388 174.89 153.17L176.076 151.179L177.171 152.079L175.638 153.797C175.483 153.974 175.2 153.988 175.006 153.838Z" fill="#C0783D"/>
<path d="M234.822 76.0911C234.667 75.4501 232.953 75.6956 231.884 75.5729C231.497 75.532 231.317 75.0546 231.549 74.741L232.077 74.0046C231.291 73.8409 230.376 73.7045 230.003 73.7455C229.577 73.8 228.327 74.3182 227.438 74.7137C227.438 74.7001 227.438 74.7001 227.438 74.7001C227.438 74.7001 216.601 66.4086 214.682 64.3766C213.29 62.9174 221.446 51.0938 221.318 51.012C219.101 49.6209 214.643 47.0844 210.983 46.6889C210.829 46.6889 210.713 46.648 210.584 46.5934C208.728 50.8483 206.821 56.0987 205.752 61.5946C205.056 65.1812 206.396 68.8769 209.205 71.018C212.993 73.8955 219.011 77.5912 225.853 78.5731C225.853 78.5731 229.526 80.0732 231.407 80.0323C233.946 79.9505 235.015 76.9366 234.822 76.0911Z" fill="#FBB667"/>
<path d="M257.423 60.7081C257.423 60.7081 259.15 59.208 259.833 60.9536C260.31 62.1673 259.64 63.1083 259.189 63.5583C258.957 63.7902 258.57 63.722 258.429 63.4083C258.338 63.1901 258.287 62.8628 258.39 62.4128L256.805 66.0403L257.423 60.7081Z" fill="#FFD8BD"/>
<path d="M260.568 60.2036C260.568 60.2036 259.524 60.149 259.421 62.0174C259.318 63.8857 259.111 66.545 260.606 65.1131C262.101 63.6948 260.568 60.2036 260.568 60.2036Z" fill="#FFD8BD"/>
<path d="M183.124 92.0679L181.932 91.3361L141.09 165.906L142.283 166.638L183.124 92.0679Z" fill="#C0783D"/>
<path d="M132.483 96.1108C132.664 96.5881 133.476 97.0108 134.635 97.3108C137.238 97.9927 141.632 98.0882 144.828 96.8335C148.268 95.4834 150.755 76.282 151.812 66.4358C152.186 62.9992 152.379 60.7081 152.379 60.7081C152.379 60.7081 150.407 57.4351 142.766 58.5261C135.138 59.6171 134.365 62.3446 133.669 67.2404C132.999 72.1362 131.891 94.5561 132.483 96.1108Z" fill="#F99F46"/>
<path d="M139.468 52.0757L154.183 54.7077L153.049 60.0536L139.571 63.422L139.468 52.0757Z" fill="#AA3E39"/>
<path d="M138.282 63.6129C141.179 63.6129 143.527 60.9936 143.527 57.7625C143.527 54.5314 141.179 51.912 138.282 51.912C135.386 51.912 133.038 54.5314 133.038 57.7625C133.038 60.9936 135.386 63.6129 138.282 63.6129Z" fill="#B84C42"/>
<path d="M134.558 57.9124C134.558 55.1031 136.71 52.8257 139.364 52.8257C139.48 52.8257 139.596 52.8257 139.712 52.8393C139.313 52.7302 138.901 52.662 138.462 52.662C135.808 52.662 133.656 54.9395 133.656 57.7488C133.656 60.4353 135.628 62.631 138.115 62.8219C136.066 62.2491 134.558 60.2717 134.558 57.9124Z" fill="#AA3E39"/>
<path d="M181.784 96.5063C181.72 95.5789 180.444 94.7743 179.632 94.5288C178.988 94.3379 178.138 93.3697 177.828 93.0015C174.929 89.1148 170.638 81.1915 169.556 79.8141C169.169 79.3095 167.971 76.7593 166.412 73.4591C165.368 71.2362 164.17 68.6997 162.945 66.2177C161.077 66.9404 158.822 67.9223 156.876 69.0951C158.049 71.0726 159.608 73.7182 160.974 76.0911C162.237 78.2731 163.345 80.2369 163.847 81.2188C165.394 84.2599 175.986 94.5425 175.986 94.5425L176.578 95.1698C176.694 95.2925 176.798 95.4289 176.888 95.5653C177.223 96.0835 177.828 97.1336 178.782 98.0473C179.362 98.6064 179.735 98.961 180.805 98.811C182.171 98.6473 181.849 97.4472 181.784 96.5063Z" fill="#E8945B"/>
<path d="M162.585 63.8856C162.585 63.8856 167.868 75.0546 168.628 76.8002C168.628 76.8002 165.832 82.6779 164.015 82.6507C162.185 82.6234 162.585 63.8856 162.585 63.8856Z" fill="#233862"/>
<path d="M149.48 38.9156C149.402 38.6156 148.359 35.1926 143.307 36.3245C143.307 36.3245 145.833 35.9835 146.529 37.02C146.529 37.02 144.519 36.0517 143.269 36.8563C142.019 37.6746 141.813 40.4021 141.993 41.2339C142.186 42.0658 143.565 44.5478 144.48 44.5478C144.828 44.5478 145.202 44.4251 145.524 44.2751C145.382 44.7115 145.253 45.1888 145.15 45.7206C144.171 50.5755 147.225 54.2576 148.797 53.3576C149.802 52.7712 150.575 54.6395 150.575 54.6395L158.964 42.8704C158.977 42.8568 153.139 35.4244 149.48 38.9156Z" fill="#233862"/>
<path d="M162.662 97.079C158.848 84.1917 163.023 81.396 162.636 74.9456C162.237 68.4951 157.521 61.5673 157.521 61.5673C157.521 61.5673 157.276 61.54 156.876 61.4991C156.554 61.3218 156.477 59.9172 156.477 58.4443C156.477 56.6715 156.606 54.7895 156.606 54.7895L150.949 53.603L150.614 53.5349C150.627 57.7079 149.596 60.4354 148.836 61.0763C148.127 61.1582 145.112 61.5673 143.256 62.3855C142.56 62.6992 142.019 63.0674 141.839 63.4901C140.279 67.1041 138.733 76.2275 137.651 82.7325C137.045 86.3601 135.705 90.9422 136.697 91.9105L142.56 89.5512C142.779 88.4466 143.153 86.1691 143.784 83.6871C143.875 83.3189 143.759 82.8552 143.849 82.4734C144.957 85.6645 145.524 87.1374 145.498 88.5148C145.459 90.4785 144.197 92.2378 141.568 98.4701C140.138 101.934 166.553 110.239 162.662 97.079Z" fill="#FFB27D"/>
<path d="M156.606 54.7895C156.606 54.7895 156.477 56.6714 156.477 58.4443C153.307 58.3488 151.645 55.2941 150.949 53.603L156.606 54.7895Z" fill="#E8945B"/>
<path d="M150.369 52.9621C150.369 52.9621 148.707 50.1937 148.307 47.8208C148.024 46.1297 148.836 39.8565 154.802 40.7566C154.802 40.7566 156.528 40.9339 158.165 42.1067C159.453 43.0341 161.322 45.0251 159.234 50.5073L158.693 52.362L150.369 52.9621Z" fill="#233862"/>
<path d="M157.662 56.4669C157.662 56.4669 150.176 56.6033 150.163 51.6666C150.163 46.7298 149.183 43.416 153.964 43.1296C158.745 42.8432 159.672 44.7251 160.059 46.3616C160.445 48.0118 159.608 56.3169 157.662 56.4669Z" fill="#FFB27D"/>
<path d="M168.112 171.526L165.716 172.153C165.716 172.153 161.94 166.671 158.796 159.211C156.812 154.479 155.072 149.078 154.724 144.046C154.57 141.769 154.686 139.573 155.201 137.555C155.201 137.555 154.531 132.782 153.616 126.399C152.598 119.308 151.271 110.253 150.24 103.584L150.871 103.393L164.285 99.1792C164.285 99.1792 166.914 110.048 165.703 127.095C165.458 130.586 165.046 134.35 164.427 138.319C163.358 145.11 163.796 151.942 164.685 157.615C165.935 165.73 168.112 171.526 168.112 171.526Z" fill="#B84C42"/>
<path d="M165.69 127.081L155.175 147.619C154.879 145.737 153.964 142.396 155.201 137.555C155.201 137.555 154.531 132.782 153.616 126.399C152.598 119.308 151.271 110.253 150.24 103.584L150.871 103.393L164.285 99.1792C164.26 99.1656 166.888 110.035 165.69 127.081Z" fill="#AA3E39"/>
<path d="M153.925 138.687C153.448 139.628 148.732 145.628 144.003 152.27C143.604 152.842 143.179 153.456 142.74 154.097C139.957 158.256 136.736 163.67 134.816 166.316C133.076 168.716 131.504 165.716 132.38 163.561C133.772 160.179 134.945 154.274 136.285 149.924C136.594 148.915 136.916 148.001 137.251 147.21C138.694 143.787 141.516 140.023 144.944 136.314C145.537 135.673 139.97 120.29 140.344 108.425C140.485 103.72 141.104 99.5883 142.521 97.0654L156.606 97.8018C156.631 97.7882 158.551 129.481 153.925 138.687Z" fill="#B84C42"/>
<path d="M159.853 43.6205C158.693 42.134 157.83 42.4613 157.327 42.9114C153.307 40.5521 148.268 43.1023 148.268 43.1023C147.766 46.648 147.689 49.6209 147.689 49.6209C147.689 49.6209 149.054 50.5074 152.199 49.6619C153.165 49.4027 154.015 48.68 154.75 47.8072C153.474 50.071 151.748 51.6938 151.748 51.6938C155.51 49.8528 157.018 44.3296 157.16 43.7432C157.611 44.1796 158.513 45.1206 158.796 46.0479C159.17 47.3026 159.337 49.8937 160.046 49.7982C160.033 49.7846 161.579 45.857 159.853 43.6205Z" fill="#233862"/>
<path d="M139.815 102.998C139.79 103.502 139.815 103.898 139.906 104.184C140.202 105.18 141.233 105.643 143.72 105.371C145.24 105.207 145.923 102.507 146.22 100.202C147.135 103.489 148.41 105.343 150.06 105.725C152.469 106.298 164.646 107.853 165.445 101.743C166.321 95.0061 163.693 83.0871 163.551 76.6502C163.912 74.3728 164.028 72.3954 163.989 70.6907C163.886 66.1085 162.623 63.5447 161.644 62.5083C161.373 62.2901 161.09 62.1401 159.982 61.9355C159.415 61.84 158.629 61.7173 157.508 61.5537C157.508 61.5537 157.031 61.4855 157.044 61.5127C157.25 61.9082 159.466 65.3585 159.247 66.4904C159.028 67.6768 150.511 67.5132 149.828 66.8586C149.158 66.204 147.392 61.2673 147.392 61.2673C147.392 61.2673 143.926 61.6628 142.238 62.9719C142.238 62.9719 142.238 62.9856 142.251 62.9992C142.045 63.1492 141.89 63.3129 141.8 63.4902C139.996 67.1313 138.192 76.3229 136.916 82.8689C139.996 84.669 142.676 84.1235 143.514 83.8917C142.457 91.4468 139.983 99.561 139.815 102.998Z" fill="#2B478B"/>
<path d="M157.52 61.5673C157.52 61.5673 157.52 61.581 157.533 61.5946C157.868 62.1537 163.061 70.9362 163.551 76.6503C163.912 74.3728 164.028 72.3954 163.989 70.6907C163.319 68.536 160.329 63.7084 158.77 61.7446C158.667 61.6082 157.52 61.5673 157.52 61.5673Z" fill="#F99F46"/>
<path d="M158.796 159.197C161.94 166.671 165.716 172.139 165.716 172.139L168.125 171.512C168.125 171.512 165.948 165.73 164.685 157.602C163.912 158.202 162.288 158.952 158.796 159.197Z" fill="#FFB27D"/>
<path d="M163.809 175.017H165.458C166.012 174.921 166.412 174.758 166.979 174.676C167.842 174.553 168.229 174.935 168.306 175.017C168.319 175.03 168.319 175.03 168.319 175.03H175.316C175.496 174.771 175.329 174.144 175.161 173.694C175.045 173.38 174.8 173.148 174.504 173.067C173.756 172.835 172.3 172.63 170.96 171.348C170.213 170.625 167.327 168.703 167.327 168.703H167.314C167.249 168.703 166.953 168.798 165.638 169.971C164.956 170.571 163.809 169.112 163.809 169.112C163.809 169.112 163.59 169.303 163.435 169.657C163.306 169.93 163.216 170.325 163.28 170.789C163.383 171.457 163.048 172.698 162.778 173.53C162.61 174.035 162.481 174.403 162.481 174.403C162.481 174.403 162.391 174.826 163.809 175.017Z" fill="#233862"/>
<path d="M163.809 175.017H165.458C166.012 174.921 166.412 174.758 166.979 174.676C167.842 174.553 168.228 174.935 168.306 175.017C168.319 175.03 168.319 175.03 168.319 175.03H175.316C175.496 174.771 175.328 174.144 175.161 173.694C174.955 173.489 174.89 174.567 174.774 174.73C174.658 174.894 169.066 174.798 168.744 174.539C168.422 174.294 167.455 173.858 166.102 174.198C164.93 174.498 163.203 173.735 162.765 173.53C162.597 174.035 162.469 174.403 162.469 174.403C162.469 174.403 162.391 174.826 163.809 175.017Z" fill="#466AA5"/>
<path d="M139.815 102.998C141.491 102.411 143.63 100.829 146.207 97.3109C153.023 87.9829 146.787 77.0185 145.949 76.8139C145.111 76.6094 143.539 83.9054 143.539 83.9054C143.372 85.4873 142.998 87.1511 142.689 88.7739C142.663 88.9376 142.612 89.0876 142.599 89.2512C142.315 91.1332 142.496 92.9333 142.109 94.6789C142.096 94.7198 141.375 94.8425 141.375 94.8698C140.576 98.3064 139.906 101.266 139.815 102.998Z" fill="#233862"/>
<path d="M155.51 53.5622C155.51 53.5622 155.652 54.1759 157.082 54.0531C157.082 54.0531 158.281 53.9577 158.242 53.2894C158.242 53.2894 157.069 52.8258 155.51 53.5622Z" fill="white"/>
<path d="M142.74 154.083C139.957 158.243 136.736 163.657 134.816 166.302C133.076 168.703 131.504 165.702 132.38 163.548C133.772 160.166 134.945 154.261 136.285 149.91C137.2 151.369 139.055 153.238 142.74 154.083Z" fill="#FFB27D"/>
<path d="M138.553 175.03C138.553 175.03 134.455 174.485 133.424 173.08C133.308 172.917 133.038 171.389 133.038 171.375C133.012 171.253 132.883 170.694 132.071 170.271C131.543 169.998 131.079 169.93 130.576 169.63C130.203 169.412 129.494 168.907 129.159 168.621C127.999 167.652 128.334 167.284 128.334 167.284C128.334 167.284 128.644 167.052 129.069 166.725C129.185 166.63 129.301 166.534 129.43 166.425C130.061 165.893 130.77 165.198 131.002 164.666C131.195 164.216 131.491 163.943 131.749 163.779C132.084 163.575 132.368 163.548 132.368 163.548C132.368 163.548 132.561 165.511 133.476 165.402C135.241 165.198 135.563 165.293 135.615 165.334L135.628 165.348C135.628 165.348 136.646 168.43 136.903 169.507C137.354 171.43 138.153 172.248 138.63 172.93C138.746 173.107 138.836 173.285 138.875 173.462C139.107 174.198 138.798 174.935 138.553 175.03Z" fill="#233862"/>
<path d="M138.553 175.03C138.553 175.03 134.455 174.485 133.424 173.08C133.308 172.916 133.038 171.389 133.038 171.375C133.012 171.253 132.883 170.694 132.071 170.271C131.543 169.998 131.079 169.93 130.576 169.63C130.203 169.412 129.494 168.907 129.159 168.621C127.999 167.652 128.334 167.284 128.334 167.284C128.334 167.284 128.644 167.052 129.069 166.725C129.185 166.63 129.301 166.534 129.43 166.425C129.494 166.998 129.726 168.034 130.654 168.58C131.981 169.357 133.347 170.571 133.682 171.43C134.017 172.289 134.21 173.039 135.022 173.476C135.834 173.898 138.05 174.308 138.218 174.253C138.347 174.212 138.553 173.639 138.901 173.476C139.107 174.198 138.798 174.935 138.553 175.03Z" fill="#466AA5"/>
<path d="M144.905 61.7173L142.418 62.7128C144.222 64.6357 147.251 68.5496 148.526 74.2228C150.408 82.5689 143.333 85.2827 143.333 85.2827L142.715 88.6511L142.702 88.7602C142.702 88.7602 151.541 86.5101 151.026 76.0229C150.652 68.7678 146.967 63.8584 144.905 61.7173Z" fill="#F99F46"/>
<path d="M177.236 102.193L176.54 101.77C176.115 101.511 175.973 100.938 176.218 100.502L181.488 90.8876C181.733 90.4376 182.274 90.2876 182.686 90.5467L183.382 90.9695C183.807 91.2286 183.949 91.8013 183.704 92.2377L178.434 101.852C178.189 102.302 177.648 102.452 177.236 102.193Z" fill="#233862"/>
<path d="M142.547 167.53L140.202 166.084C139.88 165.88 139.764 165.443 139.957 165.089C140.15 164.748 140.563 164.625 140.898 164.83L143.243 166.275C143.565 166.48 143.681 166.916 143.488 167.271C143.295 167.612 142.882 167.734 142.547 167.53Z" fill="#233862"/>
<path d="M140.06 169.234C139.854 169.098 139.764 168.825 139.867 168.593L140.782 166.452L141.98 167.189L140.692 169.098C140.537 169.303 140.267 169.371 140.06 169.234Z" fill="#C0783D"/>
<path d="M160.119 99.3027L159.316 98.1171L93.1477 148.356L93.9513 149.542L160.119 99.3027Z" fill="#C0783D"/>
<path d="M150.82 105.998L150.356 105.302C150.073 104.88 150.163 104.307 150.562 104.007L159.093 97.529C159.492 97.229 160.033 97.3245 160.317 97.7473L160.781 98.4428C161.064 98.8655 160.974 99.4383 160.574 99.7383L152.044 106.216C151.657 106.502 151.103 106.407 150.82 105.998Z" fill="#233862"/>
<path d="M93.8522 150.497L92.2672 148.165C92.0482 147.837 92.1126 147.387 92.4218 147.155C92.7311 146.924 93.1563 146.992 93.3754 147.319L94.9603 149.651C95.1794 149.978 95.1149 150.428 94.8057 150.66C94.4964 150.892 94.0712 150.81 93.8522 150.497Z" fill="#233862"/>
<path d="M90.9142 150.96C90.7724 150.756 90.7982 150.456 90.9915 150.292L92.6666 148.737L93.4655 149.924L91.5456 151.11C91.3265 151.233 91.0559 151.165 90.9142 150.96Z" fill="#C0783D"/>
<path d="M139.79 86.7692L136.71 91.9105C142.032 95.7971 148.088 97.9382 152.005 100.625C152.379 100.911 153.526 101.484 153.771 102.152C154.08 102.984 154.711 104.048 155.588 104.034C156.464 104.02 157.791 103.366 157.971 102.439C158.049 102.029 157.701 102.179 156.928 101.375C156.283 100.707 156.013 100.284 155.987 99.8747C155.691 99.6292 154.582 99.0428 154.582 99.0428C153.9 98.6201 153.461 98.3337 153.461 98.3337C153.436 98.3473 143.243 89.9467 139.79 86.7692Z" fill="#FFB27D"/>
<path d="M180.148 96.4245C180.174 96.179 180.212 95.9199 180.251 95.688C180.405 94.9107 179.052 94.2152 179.052 94.2152L178.279 95.3744C178.279 95.3744 179.529 96.1653 179.503 96.8472C179.491 97.0654 179.555 97.2154 179.645 97.3109C179.375 97.9927 179.284 98.7564 180.109 98.8246C181.23 98.9201 181.655 96.0017 181.655 96.0017C181.655 96.0017 180.663 95.9608 180.148 96.4245Z" fill="#E8945B"/>
<path d="M142.599 89.2512C142.599 89.2512 143.333 86.8919 143.552 83.9053C143.539 83.9053 141.993 87.5465 142.599 89.2512Z" fill="#FFB27D"/>
</svg>
